 <svg xmlns="http://www.w3.org/2000/svg" width="17" height="17" viewBox="0 0 17 17" fill="none">
                        <path opacity="0.4" d="M8.33336 11.8056V13.4583C8.33336 14.757 7.81253 15.2778 6.50697 15.2778H3.20836C1.90975 15.2778 1.38892 14.757 1.38892 13.4583V10.1597C1.38892 8.85418 1.90975 8.33334 3.20836 8.33334H4.86114V9.97918C4.86114 11.2847 5.38197 11.8056 6.68058 11.8056H8.33336Z" stroke="#0778B9" stroke-width="1.5" stroke-linecap="round" stroke-linejoin="round"/>
                        <path d="M11.8055 8.33334V9.97917C11.8055 11.2847 11.2847 11.8056 9.97914 11.8056H6.68053C5.38192 11.8056 4.86108 11.2847 4.86108 9.97917V6.68056C4.86108 5.38195 5.38192 4.86111 6.68053 4.86111H8.33331V6.50695C8.33331 7.8125 8.85414 8.33334 10.1528 8.33334H11.8055Z" stroke="#0778B9" stroke-width="1.5" stroke-linecap="round" stroke-linejoin="round"/>
                        <path d="M15.2778 3.20833V6.50694C15.2778 7.8125 14.757 8.33333 13.4514 8.33333H10.1528C8.85421 8.33333 8.33337 7.8125 8.33337 6.50694V3.20833C8.33337 1.90972 8.85421 1.38889 10.1528 1.38889H13.4514C14.757 1.38889 15.2778 1.90972 15.2778 3.20833Z" stroke="#0778B9" stroke-width="1.5" stroke-linecap="round" stroke-linejoin="round"/>
                      </svg>
