  <svg xmlns="http://www.w3.org/2000/svg" width="20" height="20" viewBox="0 0 20 20" fill="none">
                      <path d="M7.22484 11.6666H3.33317C2.4165 11.6666 1.6665 12.4166 1.6665 13.3333V18.3333H7.22484V11.6666Z" stroke="#0778B9" stroke-width="1.5" stroke-miterlimit="10" stroke-linecap="round" stroke-linejoin="round"/>
                      <path d="M11.1085 8.33337H8.88346C7.9668 8.33337 7.2168 9.08337 7.2168 10V18.3334H12.7751V10C12.7751 9.08337 12.0335 8.33337 11.1085 8.33337Z" stroke="#0778B9" stroke-width="1.5" stroke-miterlimit="10" stroke-linecap="round" stroke-linejoin="round"/>
                      <path d="M16.6666 14.1666H12.7749V18.3333H18.3332V15.8333C18.3332 14.9166 17.5832 14.1666 16.6666 14.1666Z" stroke="#0778B9" stroke-width="1.5" stroke-miterlimit="10" stroke-linecap="round" stroke-linejoin="round"/>
                      <path opacity="0.4" d="M10.4335 1.72497L10.8752 2.60831C10.9335 2.73331 11.0919 2.84997 11.2252 2.86664L12.0252 2.99997C12.5335 3.08331 12.6585 3.45829 12.2919 3.81662L11.6669 4.44162C11.5585 4.54996 11.5002 4.74996 11.5335 4.89163L11.7085 5.65831C11.8502 6.26664 11.5252 6.49998 10.9919 6.18331L10.2419 5.74165C10.1085 5.65831 9.88353 5.65831 9.75019 5.74165L9.00019 6.18331C8.46686 6.49998 8.14186 6.26664 8.28352 5.65831L8.45853 4.89163C8.49186 4.74996 8.43353 4.54162 8.32519 4.44162L7.70852 3.82497C7.34186 3.4583 7.45852 3.09162 7.97519 3.00829L8.77519 2.87498C8.90852 2.84998 9.06686 2.73331 9.12519 2.61665L9.56686 1.73329C9.80852 1.24996 10.1919 1.24997 10.4335 1.72497Z" stroke="#0778B9" stroke-width="1.5" stroke-linecap="round" stroke-linejoin="round"/>
                    </svg>
