<svg xmlns="http://www.w3.org/2000/svg" viewBox="0 0 413.25 423.54"><defs><style>.cls-1{fill:#ebebeb;}.cls-2{fill:#263238;}.cls-3{fill:#37474f;}.cls-4{fill:#ffc727;}.cls-5{fill:#154ace;}.cls-13,.cls-6{fill:#298aff;}.cls-7{opacity:0.1;}.cls-10,.cls-13,.cls-8{opacity:0.2;}.cls-10,.cls-9{fill:#71a0ff;}.cls-11{fill:#fff;}.cls-12,.cls-15{opacity:0.4;}.cls-14{fill:#dbdbdb;}.cls-15{fill:#0778b9;}</style></defs><g id="Background_Complete" data-name="Background Complete"><path class="cls-1" d="M92.64,317.14l-14.84.28-7.51.12c-2.51,0-5,0-7.55,0H62.3v-.45l0-12.63V304h.5l14.95.07c5,0,10,.11,15,.16h.27v.27c0,2.14-.09,4.27-.13,6.38Zm0,0-.15-6.37c0-2.1-.11-4.19-.13-6.26l.28.27c-5,.06-10,.16-15,.17L62.74,305l.5-.5-.05,12.63-.45-.44c2.47,0,4.93,0,7.4.05l7.43.12Z" transform="translate(-43.37 -46.58)"/><path class="cls-1" d="M76,333.07l-14.83.28-7.52.12c-2.51,0-5,0-7.55,0h-.44v-.45l-.06-12.63v-.5h.5L61,320c5,0,10,.12,14.95.17h.27v.27c0,2.14-.08,4.27-.13,6.38Zm0,0-.14-6.37c0-2.1-.11-4.19-.13-6.26l.27.27c-5,.06-10,.16-14.95.17l-14.95.06.5-.5-.05,12.63-.45-.44c2.47,0,4.93,0,7.4.05l7.44.12Z" transform="translate(-43.37 -46.58)"/><path class="cls-1" d="M76,59.71,61.13,60l-7.52.11c-2.51,0-5,0-7.55.06h-.44v-.45l-.06-12.63v-.5h.5L61,46.64c5,0,10,.12,14.95.17h.27v.27c0,2.14-.08,4.27-.13,6.38Zm0,0-.14-6.37c0-2.1-.11-4.19-.13-6.26l.27.27c-5,0-10,.16-14.95.17l-14.95.06.5-.5-.05,12.63-.45-.44c2.47,0,4.93,0,7.4,0l7.44.12Z" transform="translate(-43.37 -46.58)"/><path class="cls-1" d="M453.94,59.71,439.1,60l-7.51.11c-2.51,0-5,0-7.55.06h-.44v-.45l0-12.63v-.5h.5l14.95.06c5,0,10,.12,14.95.17h.27v.27c0,2.14-.09,4.27-.13,6.38Zm0,0-.14-6.37c-.05-2.1-.12-4.19-.14-6.26l.28.27c-5,0-10,.16-14.95.17L424,47.58l.5-.5-.05,12.63-.45-.44c2.47,0,4.93,0,7.4,0l7.43.12Z" transform="translate(-43.37 -46.58)"/><path class="cls-1" d="M437.26,75.64l-14.83.28-7.52.11c-2.51,0-5,0-7.55.06h-.44v-.45L406.86,63v-.5h.5l14.95.06c5,0,10,.12,14.95.17h.28V63c0,2.14-.08,4.27-.13,6.38Zm0,0-.14-6.37c-.05-2.11-.11-4.19-.13-6.26l.27.27c-5,0-10,.16-14.95.17l-14.95.06.5-.5-.05,12.63-.45-.44c2.47,0,4.93,0,7.4,0l7.44.12Z" transform="translate(-43.37 -46.58)"/><path class="cls-1" d="M360.69,223.44l-14.83.28-7.52.11c-2.51,0-5,0-7.54,0h-.45v-.45l-.05-12.64v-.5h.51l14.94.07c5,0,10,.11,14.95.16H361v.27c0,2.14-.08,4.27-.13,6.38Zm0,0-.14-6.38c-.05-2.1-.11-4.18-.13-6.26l.27.28c-5,0-10,.16-14.95.16l-14.94.06.49-.5-.05,12.64-.44-.45c2.46,0,4.92,0,7.39.06l7.44.11Z" transform="translate(-43.37 -46.58)"/><path class="cls-1" d="M344,239.37l-14.83.28-7.51.11c-2.51.05-5,0-7.55.05h-.45v-.45l-.05-12.64v-.5h.5l14.95.07c5,0,10,.11,14.94.16h.28v.27c0,2.14-.09,4.27-.13,6.38Zm0,0-.14-6.38c0-2.1-.11-4.18-.13-6.26l.27.28c-5,.05-10,.16-14.94.16l-14.95.06.5-.5-.06,12.64-.44-.45c2.46,0,4.93,0,7.4.06l7.43.11Z" transform="translate(-43.37 -46.58)"/><path class="cls-1" d="M327.4,223.44l-14.83.28-7.51.11c-2.51,0-5,0-7.55,0h-.45v-.45L297,210.8v-.5h.51l14.94.07c5,0,10,.11,14.95.16h.28v.27c0,2.14-.09,4.27-.13,6.38Zm0,0-.14-6.38c0-2.1-.11-4.18-.13-6.26l.27.28c-5,0-10,.16-14.95.16l-14.94.06.5-.5L298,223.44l-.44-.45c2.46,0,4.92,0,7.4.06l7.43.11Z" transform="translate(-43.37 -46.58)"/><path class="cls-1" d="M453.94,333.07l-14.84.28-7.51.12c-2.51,0-5,0-7.55,0h-.44v-.45l0-12.63v-.5h.5L439,320c5,0,10,.12,14.95.17h.27v.27c0,2.14-.09,4.27-.13,6.38Zm0,0-.14-6.37c-.05-2.1-.12-4.19-.14-6.26l.28.27c-5,.06-10,.16-14.95.17l-14.95.06.5-.5-.05,12.63-.45-.44c2.47,0,4.93,0,7.4.05l7.43.12Z" transform="translate(-43.37 -46.58)"/><path class="cls-1" d="M199.93,97.28l-14.84.28-7.51.11c-2.51,0-5,0-7.55.06h-.44v-.45l-.05-12.63v-.5h.5l14.95.06c5,0,10,.11,15,.17h.27v.27c0,2.14-.09,4.27-.13,6.37Zm0,0-.15-6.37c0-2.11-.11-4.19-.13-6.26l.28.27c-5,0-10,.16-15,.16L170,85.15l.5-.5-.05,12.63-.45-.44c2.47,0,4.93,0,7.4,0l7.43.11Z" transform="translate(-43.37 -46.58)"/></g><g id="Floor"><polygon class="cls-2" points="0 336.56 51.66 336.32 103.31 336.23 206.63 336.06 309.94 336.23 361.6 336.32 413.25 336.56 361.6 336.81 309.94 336.9 206.63 337.06 103.31 336.89 51.66 336.81 0 336.56"/></g><g id="Shadow"><ellipse class="cls-1" cx="206.63" cy="402.46" rx="149.06" ry="21.08"/></g><g id="_404_Error" data-name="404 Error"><path class="cls-2" d="M157.57,227.67l-6.21-24.43-49,12.47-6.48-25.5L135,100.89,154.47,96l18.9,74.36,15.69-4L195.59,192l-15.69,4,6.2,24.43ZM124,182.87l24.26-6.17-8-31.56Z" transform="translate(-43.37 -46.58)"/><path class="cls-2" d="M298,146.12a65.58,65.58,0,0,1-3.68,22.35,55.48,55.48,0,0,1-10.12,17.67A45.82,45.82,0,0,1,269,197.73a43.91,43.91,0,0,1-19,4.14,44.54,44.54,0,0,1-19.14-4.14,45.75,45.75,0,0,1-15.27-11.59,54.17,54.17,0,0,1-10-17.67A66.82,66.82,0,0,1,202,146.12a66.84,66.84,0,0,1,3.59-22.36,54.22,54.22,0,0,1,10-17.66,46.68,46.68,0,0,1,15.27-11.68A43.74,43.74,0,0,1,250,90.19a43.12,43.12,0,0,1,19,4.23,46.76,46.76,0,0,1,15.18,11.68,55.54,55.54,0,0,1,10.12,17.66A65.6,65.6,0,0,1,298,146.12Zm-29.62,0q0-12.88-5.15-20.88t-13.25-8q-8.46,0-13.52,8t-5.06,20.88q0,12.88,5.06,20.79T250,174.82q8.1,0,13.25-7.91T268.4,146.12Z" transform="translate(-43.37 -46.58)"/><path class="cls-2" d="M350.84,223l4-24.88L304.93,190l4.21-26,71.5-66.33,19.8,3.21-12.27,75.74,16,2.59-4.23,26.15-16-2.59-4,24.88Zm-13-54.47,24.7,4,5.21-32.15Z" transform="translate(-43.37 -46.58)"/><path class="cls-2" d="M85.8,52.35H98.52v4.32H91v3.72h6.48v4.32H91v7.14H85.8Z" transform="translate(-43.37 -46.58)"/><path class="cls-2" d="M100.09,64.35c0-4.86,3.54-7.86,7.2-7.86,4.44,0,6.53,3.24,6.53,7.26a10,10,0,0,1-.21,2.16h-8.54c.48,1.8,1.8,2.4,3.47,2.4a6.16,6.16,0,0,0,3.06-.9l1.69,3.06a10.13,10.13,0,0,1-5.46,1.74C103.45,72.21,100.09,69.33,100.09,64.35Zm9.36-1.8a1.9,1.9,0,0,0-2-2.16,2.38,2.38,0,0,0-2.4,2.16Z" transform="translate(-43.37 -46.58)"/><path class="cls-2" d="M115.75,67.59c0-3.12,2.4-4.86,8.16-5.46-.12-1.08-.78-1.56-2.1-1.56A8.18,8.18,0,0,0,118,61.83l-1.8-3.36a12.64,12.64,0,0,1,6.6-2c3.9,0,6.23,2.1,6.23,7v8.34h-4.19l-.37-1.44h-.11a6.08,6.08,0,0,1-4.14,1.8A4.41,4.41,0,0,1,115.75,67.59Zm8.16-.36v-2c-2.46.36-3.24,1.14-3.24,2,0,.69.48,1.08,1.37,1.08A2.37,2.37,0,0,0,123.91,67.23Z" transform="translate(-43.37 -46.58)"/><path class="cls-2" d="M132.49,66.09V60.87h-2V57l2.28-.18.6-3.9h4.26v3.9h3.42v4h-3.42V66c0,1.65.84,2.19,1.8,2.19a4.31,4.31,0,0,0,1.32-.24l.78,3.72a11.33,11.33,0,0,1-3.54.54C134.11,72.21,132.49,69.75,132.49,66.09Z" transform="translate(-43.37 -46.58)"/><path class="cls-2" d="M143.71,66.09V56.85h5.16v8.58c0,1.92.48,2.4,1.5,2.4a2.36,2.36,0,0,0,2.16-1.32V56.85h5.16v15h-4.2l-.36-2H153a5.68,5.68,0,0,1-4.62,2.34C145.09,72.21,143.71,69.81,143.71,66.09Z" transform="translate(-43.37 -46.58)"/><path class="cls-2" d="M161.17,56.85h4.2l.36,2.58h.12a5,5,0,0,1,4.26-2.94,4.46,4.46,0,0,1,1.86.3l-.84,4.44a7.08,7.08,0,0,0-1.68-.24,3.45,3.45,0,0,0-3.12,2.52v8.34h-5.16Z" transform="translate(-43.37 -46.58)"/><path class="cls-2" d="M172.63,64.35c0-4.86,3.54-7.86,7.2-7.86,4.44,0,6.54,3.24,6.54,7.26a10.73,10.73,0,0,1-.21,2.16h-8.55c.48,1.8,1.8,2.4,3.48,2.4a6.16,6.16,0,0,0,3.06-.9l1.68,3.06a10.11,10.11,0,0,1-5.46,1.74C176,72.21,172.63,69.33,172.63,64.35Zm9.36-1.8a1.89,1.89,0,0,0-2-2.16,2.38,2.38,0,0,0-2.4,2.16Z" transform="translate(-43.37 -46.58)"/><path class="cls-2" d="M195.61,52.35h5.28l4.32,8.7,1.86,4.38h.12a70,70,0,0,1-.66-7.44V52.35h4.92v19.5h-5.28l-4.32-8.73L200,58.77h-.12a73,73,0,0,1,.66,7.44v5.64h-4.92Z" transform="translate(-43.37 -46.58)"/><path class="cls-2" d="M214.57,64.35c0-5,3.6-7.86,7.43-7.86s7.44,2.88,7.44,7.86-3.6,7.86-7.44,7.86S214.57,69.33,214.57,64.35Zm9.6,0c0-2.28-.61-3.72-2.17-3.72s-2.15,1.44-2.15,3.72.6,3.72,2.15,3.72S224.17,66.63,224.17,64.35Z" transform="translate(-43.37 -46.58)"/><path class="cls-2" d="M231.9,66.09V60.87h-2V57l2.28-.18.6-3.9h4.26v3.9h3.42v4h-3.42V66c0,1.65.84,2.19,1.8,2.19a4.31,4.31,0,0,0,1.32-.24l.78,3.72a11.33,11.33,0,0,1-3.54.54C233.52,72.21,231.9,69.75,231.9,66.09Z" transform="translate(-43.37 -46.58)"/><path class="cls-2" d="M253.14,52.35h6.24l5.94,19.5h-5.46l-2.22-9.48c-.48-1.86-1-4.23-1.44-6.18h-.12c-.41,2-.9,4.32-1.38,6.18l-2.22,9.48h-5.27Zm-1.68,11.37H261v4h-9.54Z" transform="translate(-43.37 -46.58)"/><path class="cls-2" d="M264.79,56.85h5.15l1.62,6.54q.54,2.25,1.08,4.68h.12q.54-2.43,1.08-4.68l1.62-6.54h4.92l-4.74,15H269.7Z" transform="translate(-43.37 -46.58)"/><path class="cls-2" d="M281.28,67.59c0-3.12,2.4-4.86,8.16-5.46-.12-1.08-.78-1.56-2.1-1.56a8.18,8.18,0,0,0-3.78,1.26l-1.8-3.36a12.64,12.64,0,0,1,6.6-2c3.9,0,6.24,2.1,6.24,7v8.34h-4.2L290,70.41h-.12a6.08,6.08,0,0,1-4.14,1.8A4.41,4.41,0,0,1,281.28,67.59Zm8.16-.36v-2c-2.46.36-3.24,1.14-3.24,2,0,.69.48,1.08,1.38,1.08A2.36,2.36,0,0,0,289.44,67.23Z" transform="translate(-43.37 -46.58)"/><path class="cls-2" d="M297.67,52.41A2.89,2.89,0,1,1,300.54,55,2.63,2.63,0,0,1,297.67,52.41Zm.29,4.44h5.16v15H298Z" transform="translate(-43.37 -46.58)"/><path class="cls-2" d="M306.6,66.57V51h5.16V66.75c0,1,.48,1.32.84,1.32a1.85,1.85,0,0,0,.54-.06l.6,3.78a6.38,6.38,0,0,1-2.52.42C307.74,72.21,306.6,69.93,306.6,66.57Z" transform="translate(-43.37 -46.58)"/><path class="cls-2" d="M314.94,67.59c0-3.12,2.4-4.86,8.16-5.46-.12-1.08-.78-1.56-2.1-1.56a8.18,8.18,0,0,0-3.78,1.26l-1.8-3.36a12.64,12.64,0,0,1,6.6-2c3.9,0,6.24,2.1,6.24,7v8.34h-4.2l-.36-1.44h-.12a6.08,6.08,0,0,1-4.14,1.8A4.41,4.41,0,0,1,314.94,67.59Zm8.16-.36v-2c-2.46.36-3.24,1.14-3.24,2,0,.69.48,1.08,1.38,1.08A2.36,2.36,0,0,0,323.1,67.23Z" transform="translate(-43.37 -46.58)"/><path class="cls-2" d="M336.18,70.23h-.12l-.42,1.62h-4V51h5.16v4.86L336.66,58a5.52,5.52,0,0,1,3.69-1.5c3.54,0,5.85,3,5.85,7.59,0,5.19-3.06,8.13-6.24,8.13A5.05,5.05,0,0,1,336.18,70.23Zm4.74-6.06c0-2.46-.72-3.48-2.1-3.48a2.51,2.51,0,0,0-2,1.08v5.52a2.75,2.75,0,0,0,1.92.72C339.9,68,340.92,67.05,340.92,64.17Z" transform="translate(-43.37 -46.58)"/><path class="cls-2" d="M348.72,66.57V51h5.16V66.75c0,1,.48,1.32.84,1.32a1.85,1.85,0,0,0,.54-.06l.6,3.78a6.38,6.38,0,0,1-2.52.42C349.86,72.21,348.72,69.93,348.72,66.57Z" transform="translate(-43.37 -46.58)"/><path class="cls-2" d="M356.88,64.35c0-4.86,3.54-7.86,7.2-7.86,4.44,0,6.54,3.24,6.54,7.26a10.73,10.73,0,0,1-.21,2.16h-8.55c.48,1.8,1.8,2.4,3.48,2.4a6.16,6.16,0,0,0,3.06-.9l1.68,3.06a10.11,10.11,0,0,1-5.46,1.74C360.24,72.21,356.88,69.33,356.88,64.35Zm9.36-1.8a1.89,1.89,0,0,0-2-2.16,2.38,2.38,0,0,0-2.4,2.16Z" transform="translate(-43.37 -46.58)"/><path class="cls-2" d="M383.28,65.13,377.4,52.35h5.52l1.44,4.08c.48,1.47,1,2.82,1.47,4.35H386c.51-1.53,1-2.88,1.53-4.35l1.44-4.08h5.4l-5.88,12.78v6.72h-5.16Z" transform="translate(-43.37 -46.58)"/><path class="cls-2" d="M393.18,64.35c0-4.86,3.54-7.86,7.2-7.86,4.44,0,6.54,3.24,6.54,7.26a10.73,10.73,0,0,1-.21,2.16h-8.55c.48,1.8,1.8,2.4,3.48,2.4a6.16,6.16,0,0,0,3.06-.9l1.68,3.06a10.11,10.11,0,0,1-5.46,1.74C396.54,72.21,393.18,69.33,393.18,64.35Zm9.36-1.8a1.89,1.89,0,0,0-2-2.16,2.38,2.38,0,0,0-2.4,2.16Z" transform="translate(-43.37 -46.58)"/><path class="cls-2" d="M410.1,66.09V60.87h-2V57l2.28-.18L411,53h4.26v3.9h3.42v4h-3.42V66c0,1.65.84,2.19,1.8,2.19a4.31,4.31,0,0,0,1.32-.24l.78,3.72a11.33,11.33,0,0,1-3.54.54C411.72,72.21,410.1,69.75,410.1,66.09Z" transform="translate(-43.37 -46.58)"/><path class="cls-2" d="M422.1,69.09a3,3,0,1,1,3,3.12A3,3,0,0,1,422.1,69.09Zm.6-12.9-.18-4.44h5.16l-.18,4.44-.72,8.34h-3.36Z" transform="translate(-43.37 -46.58)"/></g><g id="Robot"><rect class="cls-3" x="191.71" y="267.27" width="35.51" height="2.91"/><rect class="cls-3" x="191.71" y="271.06" width="35.51" height="2.91"/><rect class="cls-3" x="191.71" y="274.84" width="35.51" height="2.91"/><rect class="cls-3" x="191.71" y="278.63" width="35.51" height="2.91"/><rect class="cls-3" x="191.71" y="282.42" width="35.51" height="2.91"/><rect class="cls-3" x="175.08" y="358.01" width="67.52" height="2.91"/><rect class="cls-3" x="175.08" y="361.8" width="67.52" height="2.91"/><rect class="cls-3" x="175.08" y="365.59" width="67.52" height="2.91"/><rect class="cls-3" x="175.08" y="369.38" width="67.52" height="2.91"/><rect class="cls-3" x="175.08" y="373.17" width="67.52" height="2.91"/><path class="cls-4" d="M188.83,289.8c0-.39-14.77-5.36-14.77-5.36l.87-50.88,19.64-4.22Z" transform="translate(-43.37 -46.58)"/><path class="cls-5" d="M188.83,289.8c0-.39-14.77-5.36-14.77-5.36l.87-50.88,19.64-4.22Z" transform="translate(-43.37 -46.58)"/><path class="cls-4" d="M324.49,309.77c.1-.38,15.72.06,15.72.06l16.69-48.08-17-10.71Z" transform="translate(-43.37 -46.58)"/><path class="cls-5" d="M324.49,309.77c.1-.38,15.72.06,15.72.06l16.69-48.08-17-10.71Z" transform="translate(-43.37 -46.58)"/><path class="cls-6" d="M186,308.54s5.49-82.3,10.31-109.38c0,0,99.42,7.52,153.09,28,0,0-27.67,96.12-29.1,100.89C320.28,328.09,250.27,314.3,186,308.54Z" transform="translate(-43.37 -46.58)"/><path class="cls-7" d="M274.72,210.15q-2.42,14.86-4.94,29.72l-5.13,29.67-.27-.41L297.69,277l16.64,4,16.61,4.11-16.7-3.74-16.69-3.81-33.34-7.79-.34-.08.06-.34,5.31-29.65Q271.91,225,274.72,210.15Z" transform="translate(-43.37 -46.58)"/><path class="cls-7" d="M271.07,215.8a2,2,0,0,1-1.75,1.94,2,2,0,0,1-1.46-.48,2,2,0,0,1-.66-1.46,2,2,0,0,1,.66-1.46,1.94,1.94,0,0,1,3.21,1.46Zm0,0a1.6,1.6,0,0,0-.55-1.19,1.57,1.57,0,1,0,0,2.39A1.64,1.64,0,0,0,271.07,215.8Z" transform="translate(-43.37 -46.58)"/><path class="cls-7" d="M269.32,228.05a1.93,1.93,0,0,1-1.74,1.93,1.92,1.92,0,0,1-2.12-1.93,1.94,1.94,0,0,1,.65-1.46,2,2,0,0,1,1.47-.48A2,2,0,0,1,269.32,228.05Zm0,0a1.6,1.6,0,0,0-.55-1.2,1.57,1.57,0,0,0-1.19-.36,1.57,1.57,0,0,0,0,3.12,1.56,1.56,0,0,0,1.74-1.56Z" transform="translate(-43.37 -46.58)"/><path class="cls-7" d="M267.17,241a1.93,1.93,0,0,1-1.74,1.93,2,2,0,0,1-1.47-3.4,2,2,0,0,1,1.47-.47A1.94,1.94,0,0,1,267.17,241Zm0,0a1.6,1.6,0,0,0-.55-1.2,1.57,1.57,0,0,0-1.19-.36,1.57,1.57,0,0,0,0,3.12,1.62,1.62,0,0,0,1.19-.37A1.56,1.56,0,0,0,267.17,241Z" transform="translate(-43.37 -46.58)"/><path class="cls-7" d="M265,253.93a1.94,1.94,0,0,1-1.74,1.93,1.94,1.94,0,1,1,0-3.87A1.94,1.94,0,0,1,265,253.93Zm0,0a1.6,1.6,0,0,0-.55-1.2,1.57,1.57,0,0,0-1.19-.36,1.57,1.57,0,0,0,0,3.12,1.62,1.62,0,0,0,1.19-.37A1.6,1.6,0,0,0,265,253.93Z" transform="translate(-43.37 -46.58)"/><path class="cls-7" d="M272.35,274.56a1.94,1.94,0,1,1-1.75-1.93A1.94,1.94,0,0,1,272.35,274.56Zm0,0a1.64,1.64,0,0,0-.55-1.2,1.62,1.62,0,0,0-1.2-.36,1.57,1.57,0,1,0,1.2,2.76A1.64,1.64,0,0,0,272.35,274.56Z" transform="translate(-43.37 -46.58)"/><path class="cls-7" d="M284.56,277.54a1.94,1.94,0,0,1-3.21,1.46,1.94,1.94,0,0,1,0-2.92,2,2,0,0,1,1.46-.47A1.93,1.93,0,0,1,284.56,277.54Zm0,0a1.6,1.6,0,0,0-.55-1.2,1.62,1.62,0,0,0-1.2-.36,1.57,1.57,0,1,0,1.2,2.76A1.6,1.6,0,0,0,284.56,277.54Z" transform="translate(-43.37 -46.58)"/><path class="cls-7" d="M296.77,280.52a1.93,1.93,0,0,1-3.2,1.46,2,2,0,0,1-.66-1.46,1.94,1.94,0,0,1,.65-1.46,2,2,0,0,1,1.47-.47A1.93,1.93,0,0,1,296.77,280.52Zm0,0a1.59,1.59,0,0,0-.54-1.2A1.64,1.64,0,0,0,295,279a1.57,1.57,0,0,0,0,3.12,1.55,1.55,0,0,0,1.74-1.56Z" transform="translate(-43.37 -46.58)"/><path class="cls-7" d="M309,283.5a1.94,1.94,0,0,1-3.21,1.46,2,2,0,0,1-.66-1.46,2,2,0,0,1,.66-1.46,2,2,0,0,1,1.46-.48A2,2,0,0,1,309,283.5Zm0,0a1.64,1.64,0,0,0-.55-1.2,1.57,1.57,0,1,0-1.2,2.76,1.62,1.62,0,0,0,1.2-.36A1.64,1.64,0,0,0,309,283.5Z" transform="translate(-43.37 -46.58)"/><path class="cls-7" d="M321.2,286.61a2,2,0,0,1-1.89,1.79,2,2,0,0,1-1.43-.58,1.95,1.95,0,0,1,.23-2.91,1.92,1.92,0,0,1,1.49-.36A2,2,0,0,1,321.2,286.61Zm0,0a1.6,1.6,0,0,0-.46-1.23,1.57,1.57,0,1,0-.18,2.38A1.6,1.6,0,0,0,321.2,286.61Z" transform="translate(-43.37 -46.58)"/><path class="cls-7" d="M262.87,266.86a1.94,1.94,0,0,1-1.74,1.94,2.05,2.05,0,0,1-1.47-.47,1.94,1.94,0,0,1,1.47-3.4A1.94,1.94,0,0,1,262.87,266.86Zm0,0a1.6,1.6,0,0,0-.55-1.19,1.57,1.57,0,1,0,0,2.39A1.6,1.6,0,0,0,262.87,266.86Z" transform="translate(-43.37 -46.58)"/><circle class="cls-8" cx="223.43" cy="267.31" r="28.23" transform="translate(-164.81 171.35) rotate(-41.96)"/><circle class="cls-2" cx="223.43" cy="267.31" r="22.64" transform="translate(-149.04 335.06) rotate(-69.27)"/><rect class="cls-9" x="216.31" y="258.54" width="5.36" height="5.36" transform="translate(1.22 -78.24) rotate(9.2)"/><rect class="cls-9" x="211.87" y="252.39" width="5.36" height="5.36" transform="translate(0.18 -77.61) rotate(9.2)"/><rect class="cls-9" x="233.04" y="255.82" width="5.36" height="5.36" transform="translate(1 -80.95) rotate(9.2)"/><rect class="cls-9" x="208.46" y="273.44" width="5.36" height="5.36" transform="translate(3.5 -76.79) rotate(9.2)"/><rect class="cls-9" x="229.63" y="276.87" width="5.36" height="5.36" transform="translate(4.32 -80.13) rotate(9.2)"/><rect class="cls-9" x="214.61" y="269" width="5.36" height="5.36" transform="translate(2.87 -77.83) rotate(9.2)"/><rect class="cls-9" x="220.75" y="264.63" width="5.36" height="5.36" transform="translate(2.25 -78.87) rotate(9.2)"/><rect class="cls-9" x="226.89" y="260.25" width="5.36" height="5.36" transform="translate(1.63 -79.91) rotate(9.2)"/><rect class="cls-9" x="225.2" y="270.72" width="5.36" height="5.36" transform="translate(3.29 -79.51) rotate(9.2)"/><circle class="cls-9" cx="299.19" cy="279.14" r="28.23" transform="translate(-149.73 287.05) rotate(-50.67)"/><circle class="cls-10" cx="299.19" cy="279.14" r="28.23" transform="translate(-149.73 287.05) rotate(-50.67)"/><path class="cls-10" d="M326.66,285.67c-.13.56-.28,1.09-.44,1.63l-55-11.74c.13-1,.3-2,.53-2.95a28.24,28.24,0,1,1,54.94,13.06Z" transform="translate(-43.37 -46.58)"/><circle class="cls-2" cx="299.19" cy="279.14" r="22.64" transform="translate(-127.86 90.34) rotate(-22.68)"/><rect class="cls-9" x="296.51" y="265.8" width="5.36" height="26.69" transform="translate(29.28 -108.19) rotate(13.37)"/><path class="cls-4" d="M328.3,285.14,270.5,271.4a29.71,29.71,0,0,1,57.8,13.74Z" transform="translate(-43.37 -46.58)"/><path class="cls-5" d="M328.3,285.14,270.5,271.4a29.71,29.71,0,0,1,57.8,13.74Z" transform="translate(-43.37 -46.58)"/><path class="cls-7" d="M250.07,295.92a10.51,10.51,0,0,1,2.61-6.35,7.67,7.67,0,0,1,3.07-2.07,8.66,8.66,0,0,1,3.7-.41,6.9,6.9,0,0,1,5.8,4.33,11.49,11.49,0,0,1,.59,6.85,18,18,0,0,0-2-6.14,5.88,5.88,0,0,0-4.61-3.06,7.06,7.06,0,0,0-5.49,1.61A14.78,14.78,0,0,0,250.07,295.92Z" transform="translate(-43.37 -46.58)"/><path class="cls-11" d="M193.72,238.34c.23-3,.57-6,.86-9s.65-6,1-9,.74-6,1.12-9,.81-6,1.22-9l.1-.8.81.05q9.78.61,19.51,1.61c3.24.33,6.48.71,9.72,1.12s6.47.9,9.68,1.48l-19.52-1.2-19.49-1.27.91-.74c-.44,3-.85,6-1.32,9s-.92,6-1.42,8.95-1,5.95-1.52,8.93S194.33,235.38,193.72,238.34Z" transform="translate(-43.37 -46.58)"/><path class="cls-11" d="M198.41,261.16a24.55,24.55,0,0,1,4.52-10.09c.55-.76,1.18-1.46,1.78-2.18s1.33-1.33,2-2,1.47-1.18,2.22-1.75,1.58-1,2.39-1.52,1.71-.83,2.57-1.22l2.68-.93,2.78-.57c.93-.14,1.87-.17,2.81-.24A27.3,27.3,0,0,1,233,242.76a38.59,38.59,0,0,0-10.78-.72,25.22,25.22,0,0,0-10.07,3.13,29.14,29.14,0,0,0-8.18,6.75A33.21,33.21,0,0,0,198.41,261.16Z" transform="translate(-43.37 -46.58)"/><path class="cls-11" d="M276.29,268.78a24.78,24.78,0,0,1,5.86-9.37c.65-.67,1.37-1.28,2.07-1.91s1.5-1.13,2.26-1.69,1.61-1,2.44-1.43,1.71-.8,2.58-1.17,1.8-.59,2.7-.86l2.79-.55,2.83-.18c.94,0,1.88.1,2.82.16a27.19,27.19,0,0,1,10.47,3.56,38.91,38.91,0,0,0-10.58-2.2,25.25,25.25,0,0,0-10.4,1.71,29.45,29.45,0,0,0-9,5.55A33.57,33.57,0,0,0,276.29,268.78Z" transform="translate(-43.37 -46.58)"/><g class="cls-12"><path class="cls-6" d="M189.14,359.25c-7.23,0-23.06-1.62-33.25-14.72-13-16.76-8.32-48.92-8.12-50.28l5.66.86c0,.31-4.54,31.09,7,45.9,11.26,14.48,31.69,12.41,31.89,12.38l.65,5.69C192.72,359.1,191.32,359.25,189.14,359.25Z" transform="translate(-43.37 -46.58)"/></g><path class="cls-6" d="M155.1,299a19,19,0,0,1-3.16-.25c-9.55-1.55-13.77-7.26-15.64-11.78S134,277,135,270.68l12.1,2c-.63,3.89-.44,7.32.52,9.65.69,1.66,2,3.66,6.26,4.35,1.94.31,4,.15,6.23-3.16a22.84,22.84,0,0,0,3.06-8.23l12.11,2a35.47,35.47,0,0,1-5,13C166.56,296,161.22,299,155.1,299Z" transform="translate(-43.37 -46.58)"/><path class="cls-4" d="M201.1,375.63c0-.26-10.26-1.89-10.26-1.89l-5-33.41,12.39-4.9Z" transform="translate(-43.37 -46.58)"/><path class="cls-5" d="M201.1,375.63c0-.26-10.26-1.89-10.26-1.89l-5-33.41,12.39-4.9Z" transform="translate(-43.37 -46.58)"/><path class="cls-6" d="M302.3,375.69c0-.26,10.29-1.66,10.29-1.66l5.71-33.29L306,335.57Z" transform="translate(-43.37 -46.58)"/><path class="cls-13" d="M302.3,375.69c0-.26,10.29-1.66,10.29-1.66l5.71-33.29L306,335.57Z" transform="translate(-43.37 -46.58)"/><path class="cls-6" d="M196.84,328s82.79-3.53,110.75,1.13c0,0-8.21,80.1-8.65,81.66,0,0-82.36-.23-95.23,0C203.71,410.74,196.74,357.47,196.84,328Z" transform="translate(-43.37 -46.58)"/><path class="cls-8" d="M222,349.91s45.19-1.79,60.46.56c0,0-4.49,40.39-4.73,41.18,0,0-45-.11-52,0C225.74,391.65,222.65,364,222,349.91Z" transform="translate(-43.37 -46.58)"/><path class="cls-8" d="M228.16,391.63l-2.43,0S222.65,364,222,349.9l2.83-.1Z" transform="translate(-43.37 -46.58)"/><path class="cls-5" d="M241.49,359.87a4.81,4.81,0,1,0,3.14,6A4.81,4.81,0,0,0,241.49,359.87Zm2.58,5.86a4.22,4.22,0,1,1-2.75-5.3A4.22,4.22,0,0,1,244.07,365.73Zm-2.58-5.86a4.81,4.81,0,1,0,3.14,6A4.81,4.81,0,0,0,241.49,359.87Zm2.58,5.86a4.22,4.22,0,1,1-2.75-5.3A4.22,4.22,0,0,1,244.07,365.73Zm-2.58-5.86a4.81,4.81,0,1,0,3.14,6A4.81,4.81,0,0,0,241.49,359.87Zm2.58,5.86a4.22,4.22,0,1,1-2.75-5.3A4.22,4.22,0,0,1,244.07,365.73Zm-1-10.94a10.13,10.13,0,1,0,6.61,12.71A10.14,10.14,0,0,0,243.1,354.79Zm2.25,11.34a5.56,5.56,0,1,1-3.63-7A5.57,5.57,0,0,1,245.35,366.13Zm-.72-.23a4.81,4.81,0,1,0-6,3.14A4.8,4.8,0,0,0,244.63,365.9Zm-.56-.17a4.22,4.22,0,1,1-2.75-5.3A4.22,4.22,0,0,1,244.07,365.73Zm-2.58-5.86a4.81,4.81,0,1,0,3.14,6A4.81,4.81,0,0,0,241.49,359.87Zm2.58,5.86a4.22,4.22,0,1,1-2.75-5.3A4.22,4.22,0,0,1,244.07,365.73Zm-2.58-5.86a4.81,4.81,0,1,0,3.14,6A4.81,4.81,0,0,0,241.49,359.87Zm2.58,5.86a4.22,4.22,0,1,1-2.75-5.3A4.22,4.22,0,0,1,244.07,365.73Z" transform="translate(-43.37 -46.58)"/><polygon class="cls-5" points="195.61 327.73 191.9 326.56 191.28 329.25 194.58 330.29 195.61 327.73"/><polygon class="cls-5" points="188.94 324.25 187.14 320.79 184.79 322.26 186.39 325.33 188.94 324.25"/><polygon class="cls-5" points="186.68 317.06 187.85 313.35 185.15 312.72 184.11 316.03 186.68 317.06"/><polygon class="cls-5" points="190.16 310.39 193.61 308.59 192.15 306.24 189.07 307.84 190.16 310.39"/><polygon class="cls-5" points="197.34 308.13 201.05 309.3 201.68 306.6 198.37 305.56 197.34 308.13"/><polygon class="cls-5" points="204.02 311.61 205.81 315.06 208.16 313.6 206.56 310.52 204.02 311.61"/><polygon class="cls-5" points="206.28 318.79 205.11 322.5 207.8 323.13 208.84 319.82 206.28 318.79"/><polygon class="cls-5" points="202.8 325.46 199.34 327.26 200.81 329.61 203.88 328.01 202.8 325.46"/><path class="cls-14" d="M257.84,374a3.24,3.24,0,1,0,.94,4.48A3.24,3.24,0,0,0,257.84,374Zm.61,4.26a2.84,2.84,0,1,1-.83-3.93A2.84,2.84,0,0,1,258.45,378.27Zm-.61-4.26a3.24,3.24,0,1,0,.94,4.48A3.24,3.24,0,0,0,257.84,374Zm.61,4.26a2.84,2.84,0,1,1-.83-3.93A2.84,2.84,0,0,1,258.45,378.27Zm-.61-4.26a3.24,3.24,0,1,0,.94,4.48A3.24,3.24,0,0,0,257.84,374Zm.61,4.26a2.84,2.84,0,1,1-.83-3.93A2.84,2.84,0,0,1,258.45,378.27Zm1.34-7.26a6.82,6.82,0,1,0,2,9.44A6.82,6.82,0,0,0,259.79,371Zm-.59,7.75a3.74,3.74,0,1,1-1.09-5.17A3.74,3.74,0,0,1,259.2,378.76Zm-.42-.27a3.23,3.23,0,1,0-4.48.95A3.25,3.25,0,0,0,258.78,378.49Zm-.33-.22a2.84,2.84,0,1,1-.83-3.93A2.84,2.84,0,0,1,258.45,378.27Zm-.61-4.26a3.24,3.24,0,1,0,.94,4.48A3.24,3.24,0,0,0,257.84,374Zm.61,4.26a2.84,2.84,0,1,1-.83-3.93A2.84,2.84,0,0,1,258.45,378.27Zm-.61-4.26a3.24,3.24,0,1,0,.94,4.48A3.24,3.24,0,0,0,257.84,374Zm.61,4.26a2.84,2.84,0,1,1-.83-3.93A2.84,2.84,0,0,1,258.45,378.27Z" transform="translate(-43.37 -46.58)"/><polygon class="cls-14" points="210.23 336.34 208.03 334.91 207.14 336.54 209.09 337.82 210.23 336.34"/><polygon class="cls-14" points="206.53 332.88 205.98 330.31 204.2 330.83 204.68 333.12 206.53 332.88"/><polygon class="cls-14" points="206.36 327.81 207.79 325.61 206.15 324.72 204.88 326.67 206.36 327.81"/><polygon class="cls-14" points="209.82 324.11 212.39 323.56 211.86 321.78 209.58 322.26 209.82 324.11"/><polygon class="cls-14" points="214.89 323.94 217.09 325.37 217.98 323.74 216.02 322.46 214.89 323.94"/><polygon class="cls-14" points="218.59 327.4 219.13 329.97 220.92 329.44 220.44 327.16 218.59 327.4"/><polygon class="cls-14" points="218.76 332.47 217.33 334.67 218.96 335.56 220.23 333.61 218.76 332.47"/><polygon class="cls-14" points="215.29 336.17 212.73 336.71 213.25 338.5 215.53 338.02 215.29 336.17"/><polygon class="cls-6" points="262.22 354.83 265.4 355.43 274.5 293.8 270.88 293.13 262.22 354.83"/><path class="cls-5" d="M277.72,391.65l4.73-41.18,31.8-10.76s-8.66,62.37-8.66,61.7Z" transform="translate(-43.37 -46.58)"/><path class="cls-15" d="M277.72,391.81l4.73-41.18,31.8-10.76s-8.66,62.37-8.66,61.71Z" transform="translate(-43.37 -46.58)"/><path class="cls-11" d="M200.64,352.14c-.52-3.41-.8-6.85-1-10.29-.1-1.72-.14-3.45-.18-5.17s-.06-3.45,0-5.18v-.45l.44,0c6.32-.34,12.63-.76,19-1s12.64-.6,19-.8c-6.31.57-12.61,1.06-18.92,1.52s-12.63.84-18.94,1.27l.46-.47,0,5.15.06,5.15c0,1.72,0,3.44.09,5.15Z" transform="translate(-43.37 -46.58)"/><path class="cls-11" d="M286.88,351.08q3-1.41,6-2.61t6.12-2.32c2.06-.7,4.13-1.39,6.24-2a57.54,57.54,0,0,1,6.39-1.49l.53-.09-.09.51c-.5,2.67-1,5.33-1.64,8,.23-2.71.56-5.41.9-8.1l.44.43c-2.1.5-4.18,1.08-6.26,1.7s-4.15,1.27-6.21,1.94Z" transform="translate(-43.37 -46.58)"/><polygon class="cls-7" points="171.03 281.54 171.56 291.84 172.02 302.14 172.82 322.75 173.44 343.37 173.69 353.68 173.86 363.99 173.32 353.69 172.86 343.39 172.07 322.78 171.45 302.16 171.2 291.86 171.03 281.54"/><path class="cls-7" d="M211.45,334.33a1.93,1.93,0,0,1-2.85,2.07,2,2,0,0,1-.58-2.87,2,2,0,0,1,1.34-.75A1.94,1.94,0,0,1,211.45,334.33Zm0,0a1.56,1.56,0,1,0-.3,1.28A1.56,1.56,0,0,0,211.45,334.33Z" transform="translate(-43.37 -46.58)"/><path class="cls-7" d="M212.16,346.68a2,2,0,0,1-1.33,2.24,1.93,1.93,0,0,1-2.46-1.48,2,2,0,0,1,.36-1.56,2,2,0,0,1,1.34-.75A1.94,1.94,0,0,1,212.16,346.68Zm0,0a1.54,1.54,0,0,0-2-1.18,1.57,1.57,0,1,0,2,1.18Z" transform="translate(-43.37 -46.58)"/><path class="cls-7" d="M212.61,359.79a2,2,0,0,1-1.33,2.24,2,2,0,0,1-1.52-.17,2,2,0,0,1-.94-1.31,2,2,0,0,1,.36-1.56,1.93,1.93,0,0,1,3.43.8Zm0,0a1.54,1.54,0,0,0-2-1.18,1.57,1.57,0,1,0,2,1.18Z" transform="translate(-43.37 -46.58)"/><path class="cls-7" d="M213.06,372.9a2,2,0,0,1-1.33,2.24,2,2,0,0,1-2.46-1.48,2,2,0,0,1,.36-1.56,1.93,1.93,0,0,1,3.43.8Zm0,0a1.6,1.6,0,0,0-.77-1.07,1.66,1.66,0,0,0-1.25-.12,1.57,1.57,0,0,0,.62,3.06,1.61,1.61,0,0,0,1.1-.59A1.58,1.58,0,0,0,213.06,372.9Z" transform="translate(-43.37 -46.58)"/><path class="cls-7" d="M213.51,386a1.93,1.93,0,0,1-2.85,2.07,2,2,0,0,1-.94-1.3,2,2,0,0,1,.36-1.57,2,2,0,0,1,1.34-.75A2,2,0,0,1,213.51,386Zm0,0a1.56,1.56,0,0,0-2-1.18,1.57,1.57,0,0,0,.62,3.06,1.56,1.56,0,0,0,1.4-1.88Z" transform="translate(-43.37 -46.58)"/><path class="cls-7" d="M214,399.11a1.93,1.93,0,1,1-3.79.77,1.94,1.94,0,0,1,1.7-2.32A2,2,0,0,1,214,399.11Zm0,0a1.58,1.58,0,0,0-.77-1.06,1.62,1.62,0,0,0-1.25-.12,1.57,1.57,0,0,0,.62,3.06,1.56,1.56,0,0,0,1.4-1.88Z" transform="translate(-43.37 -46.58)"/><rect class="cls-6" x="170.93" y="426.13" width="48.98" height="5.72" transform="translate(-159.4 28.54) rotate(-16.86)"/><rect class="cls-6" x="170.93" y="426.13" width="48.98" height="5.72" transform="translate(-159.4 28.54) rotate(-16.86)"/><rect class="cls-5" x="191.27" y="424.75" width="5.72" height="8.5" transform="translate(-164.27 32.44) rotate(-17.64)"/><polygon class="cls-6" points="129.05 400.28 116.96 347.9 80.45 356.56 98.42 407.61 129.05 400.28"/><polygon class="cls-4" points="137.15 397.62 129.05 400.28 116.96 347.9 128.61 350.68 137.15 397.62"/><polygon class="cls-5" points="137.15 397.62 129.05 400.28 116.96 347.9 128.61 350.68 137.15 397.62"/><circle class="cls-5" cx="175.49" cy="375.31" r="6.21"/><rect class="cls-4" x="302.54" y="404.41" width="5.72" height="48.98" transform="translate(-237.36 549.16) rotate(-73.02)"/><rect class="cls-6" x="302.54" y="404.41" width="5.72" height="48.98" transform="translate(-237.36 549.16) rotate(-73.02)"/><rect class="cls-5" x="302.44" y="426.04" width="8.5" height="5.72" transform="translate(-238.73 543.47) rotate(-72.23)"/><polygon class="cls-6" points="284.98 400.24 297.19 347.88 333.68 356.62 315.6 407.63 284.98 400.24"/><polygon class="cls-4" points="276.89 397.56 284.98 400.24 297.19 347.88 285.53 350.63 276.89 397.56"/><polygon class="cls-5" points="276.89 397.56 284.98 400.24 297.19 347.88 285.53 350.63 276.89 397.56"/><path class="cls-5" d="M275.76,421.74a6.22,6.22,0,1,0,6.23-6.2A6.21,6.21,0,0,0,275.76,421.74Z" transform="translate(-43.37 -46.58)"/><path class="cls-6" d="M382.12,407.71,393,402a23,23,0,0,1-2.51-8.42c-.24-4,1.34-5.36,3.07-6.28,3.8-2,6.07-1.21,7.62-.3,2.17,1.29,4.38,3.91,6.22,7.4l10.85-5.73c-3-5.62-6.62-9.74-10.84-12.23s-11-4.5-19.57,0c-6.67,3.52-10.07,9.86-9.59,17.86A35.5,35.5,0,0,0,382.12,407.71Z" transform="translate(-43.37 -46.58)"/><path class="cls-2" d="M325,338c2.35-1.62,4.76-3.15,7.17-4.67s4.86-3,7.31-4.44,4.92-2.87,7.42-4.24l3.76-2.05c1.27-.65,2.52-1.33,3.81-2-1.17.82-2.38,1.59-3.56,2.38l-3.62,2.29c-2.41,1.53-4.85,3-7.3,4.44s-4.93,2.87-7.43,4.24S327.51,336.75,325,338Z" transform="translate(-43.37 -46.58)"/><path class="cls-2" d="M318.72,361.42c3.37,1.92,6.56,4.09,9.71,6.31s6.21,4.56,9.12,7.12a115.22,115.22,0,0,1-9.71-6.31C324.72,366.29,321.63,364,318.72,361.42Z" transform="translate(-43.37 -46.58)"/><path class="cls-2" d="M324.25,358.54c2.6.79,5.16,1.69,7.71,2.59S337,363,339.57,364s5,2,7.52,3l3.74,1.6c1.23.57,2.47,1.11,3.69,1.7-1.3-.38-2.58-.83-3.87-1.24l-3.83-1.34c-2.56-.9-5.09-1.87-7.61-2.84s-5-2-7.53-3S326.7,359.72,324.25,358.54Z" transform="translate(-43.37 -46.58)"/><path class="cls-2" d="M331.63,340.22c2.49-.65,5-1.19,7.51-1.71s5-1,7.56-1.45,5.05-.86,7.59-1.22l3.81-.53c1.28-.14,2.55-.31,3.84-.42-1.25.33-2.5.6-3.75.91l-3.76.8c-2.51.53-5,1-7.56,1.45s-5.06.86-7.6,1.21S334.19,340,331.63,340.22Z" transform="translate(-43.37 -46.58)"/><g class="cls-12"><path class="cls-6" d="M325.28,347.16c6.4-3.37,21.17-9.29,36.28-2.44,19.34,8.76,30.14,39.42,30.59,40.72l-5.41,1.87c-.1-.29-10.45-29.63-27.54-37.38-16.71-7.58-33.82,3.77-34,3.89L322,349.09A36.71,36.71,0,0,1,325.28,347.16Z" transform="translate(-43.37 -46.58)"/></g></g></svg>