<svg xmlns="http://www.w3.org/2000/svg" viewBox="0 0 341.78 172.93"><defs><style>.cls-1{fill:#f0f0f0;}.cls-2{fill:#f5f5f5;}.cls-3{fill:#263238;}.cls-4{fill:#407bff;}.cls-5{fill:#fff;}</style></defs><g id="Background_Complete" data-name="Background Complete"><path class="cls-1" d="M426.83,217.41a13,13,0,0,0-3.09.38h0c-1.31-2.95-4.24-4.87-8.2-4.87a15.6,15.6,0,0,0-8.44,2.73h0c-1.67-5.63-6.7-9.4-13.73-9.4-10,0-20.45,7.63-24.23,17.39a12.6,12.6,0,0,0-2.81-.31c-.32,0-.63,0-.94,0-8.62.57-8,13.57.66,13.57h61.4a6.72,6.72,0,0,0,5.47-2.75,15.44,15.44,0,0,0,2.39-4.76C437.25,222.79,433.46,217.41,426.83,217.41Z" transform="translate(-94.03 -144.73)"/><path class="cls-1" d="M186.84,159.8c-1.34-8.88-8.42-15.07-18.77-15.07-8.48,0-17.22,4.15-23.72,10.54h0a9.92,9.92,0,0,0-6.85-2.45c-7.17,0-14.71,5.82-16.83,13a13.42,13.42,0,0,0-.53,3.27h0l-.14.1c-6,4-3,13.38,4.23,13.38h63.23a7.23,7.23,0,0,0,6.1-3.24,18.93,18.93,0,0,0,2.28-4.89C198.07,166.8,194.09,160.51,186.84,159.8Z" transform="translate(-94.03 -144.73)"/><path class="cls-2" d="M262.37,259c-1.85-12.2-11.58-20.72-25.81-20.72-11.66,0-23.67,5.71-32.62,14.5h0a13.65,13.65,0,0,0-9.41-3.37c-9.87,0-20.23,8-23.14,17.87a18,18,0,0,0-.74,4.49h0l-.2.14c-8.18,5.57-4.12,18.4,5.77,18.4h83.32a15.76,15.76,0,0,0,15.15-11.05l0-.12C277.8,268.6,272.33,260,262.37,259Z" transform="translate(-94.03 -144.73)"/></g><g id="_4_1" data-name="4 1"><path class="cls-3" d="M144.23,243.59H94V220.93l50.2-59.67h24v61h12.45v21.38H168.24v18.54h-24Zm0-21.38V191L117.7,222.21Z" transform="translate(-94.03 -144.73)"/><path class="cls-3" d="M380.39,161.26V262.13H352.52V196a84.41,84.41,0,0,1-13.09,8.32,102.31,102.31,0,0,1-15.86,6.09v-22.6q14.07-4.53,21.85-10.89a44.64,44.64,0,0,0,12.18-15.69Z" transform="translate(-94.03 -144.73)"/></g><g id="Character"><circle class="cls-4" cx="253.62" cy="211.9" r="56.71" transform="translate(-67.77 307.03) rotate(-86.41)"/><circle class="cls-5" cx="253.62" cy="211.9" r="45.8" transform="translate(-124.85 235.45) rotate(-70.49)"/><path class="cls-3" d="M283.36,204.15c-3.77-5.07-11,0-13.17,5.35a14.59,14.59,0,0,0-1.16,4.15l-2.38-16.32-1.9-15.45a5.14,5.14,0,1,0-10.21,1.25l-.48-3.85a5.14,5.14,0,0,0-10.21,1.25l.66,5.37a5.14,5.14,0,0,0-6.38-4.36h0a5.13,5.13,0,0,0-3.83,5.61l.82,6.69a5.15,5.15,0,0,0-6.38-4.36h0a5.16,5.16,0,0,0-3.84,5.62l1.64,13.37,1.18,9.59,1.54,12.59c1.1,8.95,4.61,14.07,9.83,16.36,8,3.52,22.64,3.56,29.22-1.78,5.76-4.67,9.47-15.93,10.36-22.89S284.88,206.21,283.36,204.15Z" transform="translate(-94.03 -144.73)"/><rect class="cls-4" x="247.69" y="157.14" width="11.85" height="109.53" transform="translate(90.23 -255.95) rotate(38.01)"/></g><g id="Error_Unauthorized" data-name="Error Unauthorized"><path class="cls-3" d="M95.93,294.75V276.54h13.16v2.15H98.33v5.58h10.08v2.13H98.33v6.2h11.18v2.15Z" transform="translate(-94.03 -144.73)"/><path class="cls-3" d="M112.53,294.75V281.56h2v2a5.57,5.57,0,0,1,1.42-1.85,2.5,2.5,0,0,1,1.44-.45,4.38,4.38,0,0,1,2.3.72l-.77,2.08a3.17,3.17,0,0,0-1.64-.49A2.16,2.16,0,0,0,116,284a2.36,2.36,0,0,0-.83,1.23,8.6,8.6,0,0,0-.37,2.6v6.91Z" transform="translate(-94.03 -144.73)"/><path class="cls-3" d="M121,294.75V281.56h2v2a5.57,5.57,0,0,1,1.42-1.85,2.5,2.5,0,0,1,1.44-.45,4.38,4.38,0,0,1,2.3.72l-.77,2.08a3.17,3.17,0,0,0-1.64-.49,2.16,2.16,0,0,0-1.32.44,2.36,2.36,0,0,0-.83,1.23,8.6,8.6,0,0,0-.37,2.6v6.91Z" transform="translate(-94.03 -144.73)"/><path class="cls-3" d="M128.66,288.15q0-3.66,2-5.42a6.12,6.12,0,0,1,4.15-1.47,5.94,5.94,0,0,1,4.44,1.78A6.75,6.75,0,0,1,141,288a8.68,8.68,0,0,1-.76,4,5.36,5.36,0,0,1-2.23,2.27,6.43,6.43,0,0,1-3.18.81,5.91,5.91,0,0,1-4.48-1.78A7.09,7.09,0,0,1,128.66,288.15Zm2.3,0a5.62,5.62,0,0,0,1.11,3.8,3.68,3.68,0,0,0,5.55,0,5.77,5.77,0,0,0,1.1-3.86,5.46,5.46,0,0,0-1.11-3.71,3.67,3.67,0,0,0-5.54,0A5.56,5.56,0,0,0,131,288.15Z" transform="translate(-94.03 -144.73)"/><path class="cls-3" d="M143.62,294.75V281.56h2v2a5.44,5.44,0,0,1,1.42-1.85,2.48,2.48,0,0,1,1.44-.45,4.35,4.35,0,0,1,2.29.72l-.77,2.08a3.12,3.12,0,0,0-1.64-.49,2.13,2.13,0,0,0-1.31.44,2.43,2.43,0,0,0-.84,1.23,8.92,8.92,0,0,0-.37,2.6v6.91Z" transform="translate(-94.03 -144.73)"/><path class="cls-3" d="M104.23,317.36v-1.94a4.81,4.81,0,0,1-4.18,2.23,5.44,5.44,0,0,1-2.18-.44,3.54,3.54,0,0,1-1.5-1.13,4.1,4.1,0,0,1-.69-1.66,11.32,11.32,0,0,1-.14-2.08v-8.17h2.24v7.31a13.28,13.28,0,0,0,.13,2.36,2.34,2.34,0,0,0,.9,1.39,2.78,2.78,0,0,0,1.69.5,3.58,3.58,0,0,0,1.88-.52,2.83,2.83,0,0,0,1.25-1.4,6.91,6.91,0,0,0,.37-2.58v-7.06h2.23v13.19Z" transform="translate(-94.03 -144.73)"/><path class="cls-3" d="M109.74,317.36V304.17h2V306a4.74,4.74,0,0,1,4.2-2.17,5.45,5.45,0,0,1,2.19.43,3.44,3.44,0,0,1,1.49,1.12,4.11,4.11,0,0,1,.7,1.65,13.28,13.28,0,0,1,.12,2.17v8.12h-2.23v-8a6.1,6.1,0,0,0-.26-2,2.16,2.16,0,0,0-.93-1.08,2.93,2.93,0,0,0-1.56-.41,3.63,3.63,0,0,0-2.46.91c-.69.61-1,1.75-1,3.44v7.21Z" transform="translate(-94.03 -144.73)"/><path class="cls-3" d="M132.49,315.73a8.52,8.52,0,0,1-2.39,1.49,6.93,6.93,0,0,1-2.47.43,4.78,4.78,0,0,1-3.34-1.06,3.76,3.76,0,0,1-.72-4.48,3.59,3.59,0,0,1,1.15-1.29,5.63,5.63,0,0,1,1.61-.73,15.45,15.45,0,0,1,2-.34,19.85,19.85,0,0,0,4-.77c0-.3,0-.5,0-.58a2.5,2.5,0,0,0-.64-1.93,3.76,3.76,0,0,0-2.54-.75,3.92,3.92,0,0,0-2.33.55,3.38,3.38,0,0,0-1.11,2l-2.19-.3a5.52,5.52,0,0,1,1-2.27,4.33,4.33,0,0,1,2-1.33,8.78,8.78,0,0,1,3-.46,8,8,0,0,1,2.74.39,3.64,3.64,0,0,1,1.56,1,3.44,3.44,0,0,1,.69,1.52,12,12,0,0,1,.11,2.06v3a30,30,0,0,0,.15,3.94,5,5,0,0,0,.56,1.59h-2.33A4.71,4.71,0,0,1,132.49,315.73Zm-.19-5a16.41,16.41,0,0,1-3.65.84,8,8,0,0,0-2,.45,2,2,0,0,0-.88.72,1.91,1.91,0,0,0-.31,1.07,1.89,1.89,0,0,0,.68,1.49,2.94,2.94,0,0,0,2,.59,4.65,4.65,0,0,0,2.29-.56,3.41,3.41,0,0,0,1.48-1.55,5.37,5.37,0,0,0,.36-2.23Z" transform="translate(-94.03 -144.73)"/><path class="cls-3" d="M146.67,317.36v-1.94a4.81,4.81,0,0,1-4.18,2.23,5.44,5.44,0,0,1-2.18-.44,3.64,3.64,0,0,1-1.51-1.13,4.24,4.24,0,0,1-.68-1.66,10.48,10.48,0,0,1-.14-2.08v-8.17h2.23v7.31a13,13,0,0,0,.14,2.36,2.34,2.34,0,0,0,.9,1.39,2.77,2.77,0,0,0,1.68.5,3.64,3.64,0,0,0,1.89-.52,2.83,2.83,0,0,0,1.25-1.4,7.12,7.12,0,0,0,.37-2.58v-7.06h2.23v13.19Z" transform="translate(-94.03 -144.73)"/><path class="cls-3" d="M157.06,315.36l.32,2a8.47,8.47,0,0,1-1.69.2,3.8,3.8,0,0,1-1.89-.39,2.08,2.08,0,0,1-.94-1,8,8,0,0,1-.28-2.64V305.9H151v-1.73h1.63V300.9l2.23-1.34v4.61h2.25v1.73h-2.25v7.72a3.9,3.9,0,0,0,.12,1.23.88.88,0,0,0,.38.43,1.46,1.46,0,0,0,.76.16A8.77,8.77,0,0,0,157.06,315.36Z" transform="translate(-94.03 -144.73)"/><path class="cls-3" d="M159.24,317.36V299.15h2.24v6.53a5,5,0,0,1,4-1.81,5.26,5.26,0,0,1,2.54.58,3.36,3.36,0,0,1,1.55,1.59,7.38,7.38,0,0,1,.46,3v8.36h-2.23V309a3.42,3.42,0,0,0-.73-2.44,2.69,2.69,0,0,0-2.05-.77,3.54,3.54,0,0,0-1.87.52,2.89,2.89,0,0,0-1.25,1.39,6.41,6.41,0,0,0-.37,2.44v7.22Z" transform="translate(-94.03 -144.73)"/><path class="cls-3" d="M172.56,310.76c0-2.44.67-4.25,2-5.43a6.19,6.19,0,0,1,4.15-1.46,5.92,5.92,0,0,1,4.45,1.78,6.78,6.78,0,0,1,1.72,4.92,8.73,8.73,0,0,1-.76,4,5.46,5.46,0,0,1-2.22,2.27,6.59,6.59,0,0,1-3.19.8,5.94,5.94,0,0,1-4.48-1.77A7.14,7.14,0,0,1,172.56,310.76Zm2.29,0a5.59,5.59,0,0,0,1.11,3.79,3.67,3.67,0,0,0,5.55,0,5.74,5.74,0,0,0,1.11-3.86A5.45,5.45,0,0,0,181.5,307a3.68,3.68,0,0,0-5.54,0A5.59,5.59,0,0,0,174.85,310.76Z" transform="translate(-94.03 -144.73)"/><path class="cls-3" d="M187.51,317.36V304.17h2v2a5.55,5.55,0,0,1,1.42-1.85,2.57,2.57,0,0,1,1.44-.44,4.38,4.38,0,0,1,2.3.72l-.77,2.07a3.25,3.25,0,0,0-1.64-.48,2.1,2.1,0,0,0-1.32.44,2.33,2.33,0,0,0-.83,1.22,8.71,8.71,0,0,0-.38,2.61v6.91Z" transform="translate(-94.03 -144.73)"/><path class="cls-3" d="M196,301.72v-2.57h2.23v2.57Zm0,15.64V304.17h2.23v13.19Z" transform="translate(-94.03 -144.73)"/><path class="cls-3" d="M200.48,317.36v-1.82l8.39-9.64c-1,.05-1.79.08-2.52.08H201v-1.81h10.78v1.47L204.61,314l-1.38,1.53c1-.07,1.94-.11,2.82-.11h6.1v1.93Z" transform="translate(-94.03 -144.73)"/><path class="cls-3" d="M223.4,313.11l2.31.28a5.67,5.67,0,0,1-2,3.15,6.14,6.14,0,0,1-3.78,1.11,6,6,0,0,1-4.59-1.78,7,7,0,0,1-1.69-5,7.27,7.27,0,0,1,1.71-5.16,5.79,5.79,0,0,1,4.45-1.84,5.64,5.64,0,0,1,4.32,1.8,7.15,7.15,0,0,1,1.68,5.07c0,.13,0,.33,0,.59h-9.83a5,5,0,0,0,1.23,3.33,3.64,3.64,0,0,0,2.75,1.16,3.43,3.43,0,0,0,2.1-.65A4.3,4.3,0,0,0,223.4,313.11Zm-7.34-3.62h7.37a4.39,4.39,0,0,0-.85-2.49,3.42,3.42,0,0,0-2.77-1.29,3.55,3.55,0,0,0-2.59,1A4.07,4.07,0,0,0,216.06,309.49Z" transform="translate(-94.03 -144.73)"/><path class="cls-3" d="M237.08,317.36v-1.67a4.11,4.11,0,0,1-3.69,2,5.17,5.17,0,0,1-2.9-.87,5.73,5.73,0,0,1-2.05-2.42,8.34,8.34,0,0,1-.73-3.59,9.36,9.36,0,0,1,.66-3.58,5.13,5.13,0,0,1,4.92-3.32,4.45,4.45,0,0,1,2.12.5,4.5,4.5,0,0,1,1.52,1.31v-6.53h2.22v18.21ZM230,310.77a5.75,5.75,0,0,0,1.07,3.79,3.21,3.21,0,0,0,2.52,1.26,3.15,3.15,0,0,0,2.49-1.2,5.55,5.55,0,0,0,1-3.66,6.2,6.2,0,0,0-1-4,3.22,3.22,0,0,0-2.57-1.26,3.09,3.09,0,0,0-2.49,1.22A6,6,0,0,0,230,310.77Z" transform="translate(-94.03 -144.73)"/></g></svg>
