<?xml version="1.0" encoding="utf-8"?>
<!-- Generator: Adobe Illustrator 24.1.2, SVG Export Plug-In . SVG Version: 6.00 Build 0)  -->
<svg version="1.1" id="Layer_1" xmlns="http://www.w3.org/2000/svg" xmlns:xlink="http://www.w3.org/1999/xlink" x="0px" y="0px"
	 viewBox="0 0 430 180" style="enable-background:new 0 0 430 180;" xml:space="preserve">
<style type="text/css">
	.st0{opacity:0.35;fill:url(#SVGID_1_);}
	.st1{opacity:0.35;fill:url(#SVGID_2_);}
	.st2{opacity:0.35;fill:url(#SVGID_3_);}
	.st3{fill:url(#SVGID_4_);}
	.st4{fill:url(#SVGID_5_);}
	.st5{fill:none;stroke:#FFFFFF;stroke-width:0.25;stroke-miterlimit:10;}
	.st6{fill:url(#SVGID_6_);}
	.st7{opacity:0.35;fill:url(#SVGID_7_);}
</style>
<linearGradient id="SVGID_1_" gradientUnits="userSpaceOnUse" x1="233.3392" y1="91.5919" x2="308.688" y2="166.9406">
	<stop  offset="0" style="stop-color:#0D72B9"/>
	<stop  offset="1" style="stop-color:#478ECC;stop-opacity:0"/>
</linearGradient>
<path class="st0" d="M249.7,179.6l51.7,51.7c5.5,5.5,14.4,5.5,19.9,0l51.7-51.7c5.5-5.5,5.5-14.4,0-19.9L321.3,108
	c-5.5-5.5-14.4-5.5-19.9,0l-51.7,51.7"/>
<linearGradient id="SVGID_2_" gradientUnits="userSpaceOnUse" x1="313.1145" y1="-48.3905" x2="415.4667" y2="53.9617">
	<stop  offset="0" style="stop-color:#0D72B9"/>
	<stop  offset="1" style="stop-color:#478ECC;stop-opacity:0"/>
</linearGradient>
<path class="st1" d="M513.7,39.5l-81.3-81.3c-8.7-8.7-22.7-8.7-31.4,0l-81.3,81.3c-8.7,8.7-8.7,22.7,0,31.4l81.3,81.3
	c8.7,8.7,22.7,8.7,31.4,0l81.3-81.3C522.4,62.2,522.4,48.2,513.7,39.5z"/>
<linearGradient id="SVGID_3_" gradientUnits="userSpaceOnUse" x1="357.3622" y1="7.302" x2="392.6881" y2="89.3668">
	<stop  offset="0" style="stop-color:#0D72B9"/>
	<stop  offset="1" style="stop-color:#478ECC;stop-opacity:0"/>
</linearGradient>
<polygon class="st2" points="459.9,-35 291.1,133.8 463.8,133.8 "/>
<linearGradient id="SVGID_4_" gradientUnits="userSpaceOnUse" x1="319.8989" y1="97.9852" x2="409.8063" y2="187.8925">
	<stop  offset="0" style="stop-color:#1C449B"/>
	<stop  offset="1" style="stop-color:#101016"/>
</linearGradient>
<path class="st3" d="M448.2,107.9l-49.6-49.6c-5.3-5.3-13.8-5.3-19.1,0l-99.3,99.3c-5.3,5.3-5.3,13.8,0,19.1l49.6,49.6
	c5.3,5.3,13.8,5.3,19.1,0l99.3-99.3C453.5,121.7,453.5,113.2,448.2,107.9z"/>
<linearGradient id="SVGID_5_" gradientUnits="userSpaceOnUse" x1="368.9867" y1="67.0389" x2="499.3837" y2="197.4359">
	<stop  offset="0" style="stop-color:#365AA8"/>
	<stop  offset="1" style="stop-color:#101016"/>
</linearGradient>
<path class="st4" d="M519,117.5l-71.9-71.9c-7.7-7.7-20.1-7.7-27.7,0l-71.9,71.9c-7.7,7.7-7.7,20.1,0,27.7l71.9,71.9
	c7.7,7.7,20.1,7.7,27.7,0l71.9-71.9C526.7,137.6,526.7,125.1,519,117.5z"/>
<path class="st5" d="M473.8,21.7L339.2,156.3c-3.6,3.6-3.6,9.5,0,13.1l37.8,37.8"/>
<line class="st5" x1="476.1" y1="11.4" x2="281.7" y2="205.8"/>
<linearGradient id="SVGID_6_" gradientUnits="userSpaceOnUse" x1="416.4054" y1="231.6844" x2="416.4054" y2="88.0745">
	<stop  offset="0" style="stop-color:#1C449B;stop-opacity:0"/>
	<stop  offset="1" style="stop-color:#6388C5"/>
</linearGradient>
<polygon class="st6" points="471.2,91.3 359,203.5 473.8,203.5 "/>
<path class="st5" d="M473.8,74.3l-54.9,54.9c-3.6,3.6-3.6,9.5,0,13.1l46,46"/>
<linearGradient id="SVGID_7_" gradientUnits="userSpaceOnUse" x1="1363.8351" y1="-719.5657" x2="1363.8351" y2="-490.1864" gradientTransform="matrix(-0.7071 -0.7071 0.7071 -0.7071 1630.7725 724.9096)">
	<stop  offset="0" style="stop-color:#0D72B9"/>
	<stop  offset="1" style="stop-color:#478ECC;stop-opacity:0"/>
</linearGradient>
<polyline class="st7" points="182.8,204.8 306.4,81.2 345.7,120.6 222.2,244.1 "/>
</svg>
