<?xml version="1.0" encoding="utf-8"?>
<!-- Generator: Adobe Illustrator 24.1.2, SVG Export Plug-In . SVG Version: 6.00 Build 0)  -->
<svg version="1.1" id="Capa_1" xmlns="http://www.w3.org/2000/svg" xmlns:xlink="http://www.w3.org/1999/xlink" x="0px" y="0px"
	 viewBox="0 0 512 512" style="enable-background:new 0 0 512 512;" xml:space="preserve">
<style type="text/css">
	.st0{fill:#0166B1;}
	.st1{fill:#FFFFFF;}
	.st2{fill:#6F6F6F;}
</style>
<g id="BMW-logo-grey-fallback-53px" transform="scale(1.7142857,1.7142857)">
	<g id="BMW-logo">
		<g id="BMW-logo-fallback">
			<g id="BMW_Grey-Colour_RGB-2">
				<g id="BMW_Grey-Colour_RGB">
					<g id="g3375">
						<g id="g3381" transform="translate(45.933338,1.7666669)">
							<g id="g3355" transform="translate(-45.93334,-1.7666667)">
								<path id="path21" class="st0" d="M238.2,149.3c0,48.6-39.3,88-88,88v-88H238.2z M150.2,61.4v88h-88
									C62.3,100.7,101.6,61.4,150.2,61.4z"/>
							</g>
							<path id="path21-3" class="st1" d="M104.3,59.6c48.6,0,88,39.3,88,88h-88V59.6L104.3,59.6z M16.4,147.6h88v88
								C55.7,235.5,16.4,196.2,16.4,147.6z"/>
						</g>
					</g>
					<g id="g3393">
						<path id="path14" class="st2" d="M150.2,61.4v4.8l0,0c45.8,0,83.1,37.3,83.1,83.1h4.8C238.2,100.8,198.8,61.4,150.2,61.4
							L150.2,61.4 M150.2,232.5c-45.8,0-83.1-37.3-83.1-83.1h-4.8c0,48.6,39.4,88,88,88 M150.2,0.9C68.3,0.9,1.8,67.4,1.8,149.3
							s66.5,148.4,148.4,148.4s148.4-66.5,148.4-148.4S232.2,0.9,150.2,0.9L150.2,0.9L150.2,0.9z M289,149.3
							c0,76.6-62.1,138.8-138.8,138.8S11.5,226,11.5,149.3S73.6,10.6,150.2,10.6S289,72.7,289,149.3z"/>
					</g>
					<g id="g3386">
						<g id="Group" transform="translate(7.197531,3.271605)">
							<path id="B_x5F_22d_61_" class="st2" d="M79.6,74.5c4.7-5,7.4-10.7,2.7-16.2c-2.6-3-6.9-3.6-10.5-2.2l-0.4,0.1l0.1-0.3
								c0.5-1.4,0.9-5.9-3-9c-1.9-1.5-4.2-2.1-6.6-1.8c-4.5,0.5-7.9,3.5-17.2,13.8c-2.8,3.1-6.9,8-9.4,11.2L61,94.3
								C69.5,84.9,72.9,81.5,79.6,74.5z M46.2,68.6c5.2-6.3,10.6-12,13.1-14.2c0.8-0.7,1.6-1.4,2.7-1.7c1.7-0.5,3.4,0.7,3.8,2.4
								c0.4,1.7-0.7,3.4-1.9,4.7c-2.7,3.1-12.7,13.5-12.7,13.5L46.2,68.6z M56.2,78c0,0,9.7-10.2,12.9-13.5c1.3-1.3,2.1-2.1,2.9-2.5
								c1.1-0.5,2.4-0.7,3.5,0.1c1.1,0.7,1.6,2,1.3,3.2c-0.3,1.5-1.5,2.9-2.5,3.9C73,70.6,61.4,82.9,61.4,82.9
								C61.4,82.9,56.2,78,56.2,78z M146,45.7l8.2-18.3l0.5-1.6l-0.1,1.7l0.9,24.4c2.9,0.3,5.9,0.7,8.8,1.2l-1.3-36.1
								c-4.1-0.5-8.2-0.8-12.3-0.9l-8.1,19.9l-0.3,1.5l-0.3-1.5L133.9,16c-4.1,0.2-8.2,0.5-12.3,0.9L120.3,53
								c2.9-0.5,5.9-0.9,8.8-1.2l0.9-24.4l-0.1-1.7l0.5,1.6l8.2,18.3H146L146,45.7z M214.1,83.4c2,2.1,4.9,5.6,6.5,7.7l30-18.9
								c-1.5-1.9-3.9-4.9-5.7-7l-19,12.5l-1.3,1.1l1-1.4l8.4-16.6l-5.9-5.9l-16.8,8.3l-1.4,1l1.1-1.3L223.7,44
								c-2.2-1.9-4.3-3.6-7.1-5.7l-19.1,29.8c2.4,1.8,5.6,4.6,7.6,6.4l17.9-9.2l1.2-0.8l-0.8,1.1L214.1,83.4L214.1,83.4z"/>
						</g>
					</g>
				</g>
			</g>
		</g>
	</g>
</g>
</svg>
