<svg id="Capa_1" data-name="Capa 1" xmlns="http://www.w3.org/2000/svg" viewBox="0 0 382 103.99"><defs><style>.cls-1{fill:#005be0;}</style></defs><path class="cls-1" d="M366.8,214.13a5.78,5.78,0,0,0-5.78-5.8h-8.57a5.79,5.79,0,0,0-5.78,5.8v89.6a5.79,5.79,0,0,0,5.78,5.8H361a5.78,5.78,0,0,0,5.78-5.8Zm10.92,2.39v4.24a3.21,3.21,0,0,0,3.21,3.18H440a4.87,4.87,0,0,0,4.88-4.88v-7.2c0-2.71-2.22-5.15-4.9-4.87,0,0-57.15,5.61-59,5.8a3.72,3.72,0,0,0-3.32,3.73m-47.86,93c-14.7,0-24-11.14-24-23.58V250.14h-4.21a4,4,0,0,1-4.06-4v-6a4.07,4.07,0,0,1,4.08-4.05h4.19V214a5.63,5.63,0,0,1,5.64-5.64h8.35a5.65,5.65,0,0,1,5.65,5.67v22h13a4.07,4.07,0,0,1,4.08,4.05v6a4,4,0,0,1-4,4h-13V283.3c0,6.52,3.95,10.95,11,10.95h1.18a4.41,4.41,0,0,1,4.41,4.41v6.52a4.41,4.41,0,0,1-4.41,4.41l-7.89,0M192.19,248.8c8.79,0,16.34,6.24,17.11,14.68H175.21c.74-8.44,8.19-14.68,17-14.68V233.47c-23.77,0-37.1,18.59-37.1,38.19,0,20.9,14.26,39.3,37.26,39.3,15.72,0,31.24-8.3,34.15-21.91a3.51,3.51,0,0,0-3.43-4.24H211.85a5.53,5.53,0,0,0-4.71,2.46c-3.21,4.71-7.94,7.23-14.9,7.23a17.14,17.14,0,0,1-17.17-16.35h47.78c4.41,0,6.38-2.38,6.38-6.46,0-19.11-11.3-38.2-37-38.2l0,15.31m217.76,0c8.76,0,16.35,6.24,17.12,14.68H393c.74-8.44,8.18-14.68,17-14.68V233.47c-23.76,0-37.1,18.59-37.1,38.19,0,20.9,14.29,39.3,37.27,39.3,15.71,0,31.21-8.3,34.14-21.91a3.51,3.51,0,0,0-3.42-4.24H429.61a5.63,5.63,0,0,0-4.71,2.46C421.7,292,417,294.5,410,294.5a17.21,17.21,0,0,1-17.2-16.35h47.81c4.41,0,6.38-2.38,6.38-6.46,0-19.11-11.31-38.2-37-38.2l0,15.31" transform="translate(-65 -206.97)"/><path class="cls-1" d="M289.83,209.34H135a6.35,6.35,0,0,0-6.35,6.38l.52,60.79s-33.35-60.24-35.1-63.33a11.4,11.4,0,0,0-10-5.56H71.38A6.39,6.39,0,0,0,65,214v89.15a6.38,6.38,0,0,0,6.38,6.38h8.16a6.38,6.38,0,0,0,6.38-6.38l-.52-62.51s33.68,60.87,35.1,63.25a11.22,11.22,0,0,0,10,5.64h11.69a6.38,6.38,0,0,0,6.38-6.38V224.43H289.86a4.34,4.34,0,0,0,4.35-4.35v-6.44a4.38,4.38,0,0,0-4.38-4.3" transform="translate(-65 -206.97)"/><path class="cls-1" d="M264.78,248.06c6.73,0,11.77,2.44,13.58,6.65.87,2,2.54,2.41,4.87,2.41h9.26a3.36,3.36,0,0,0,3.28-3.31c0-10.76-12.81-20.37-31-20.37-18.82,0-31.14,8.95-31.14,23.22,0,10.92,8.63,17.41,19.22,20.18,4.82,1.26,13.09,3.31,17.09,4.35,4.33,1.15,8.22,2.47,8.22,6.16,0,5.86-6.17,7.86-12.93,7.86-6.38,0-12.76-2.85-14.57-7.39-1.06-2.63-2.9-3-5.72-3h-9.39a3.63,3.63,0,0,0-3.53,3.56v1.2c0,10.41,14,21.33,33.24,21.33,13.66,0,32.69-5.67,32.69-24,0-10.63-7.09-18-18.64-20.89l-17.75-4.52c-4.21-1.1-8.13-2.47-8.13-6.05,0-5.51,5-7.37,11.34-7.37" transform="translate(-65 -206.97)"/></svg>