<?xml version="1.0" encoding="utf-8"?>
<!-- Generator: Adobe Illustrator 24.1.2, SVG Export Plug-In . SVG Version: 6.00 Build 0)  -->
<svg version="1.1" id="Capa_1" xmlns="http://www.w3.org/2000/svg" xmlns:xlink="http://www.w3.org/1999/xlink" x="0px" y="0px"
	 viewBox="0 0 512 512" style="enable-background:new 0 0 512 512;" xml:space="preserve">
<style type="text/css">
	.st0{fill:none;}
	.st1{fill-rule:evenodd;clip-rule:evenodd;fill:#005BAB;}
	.st2{fill:none;stroke:#F1EED3;stroke-width:1.600000e-03;stroke-linecap:square;stroke-miterlimit:2.6131;}
	.st3{fill-rule:evenodd;clip-rule:evenodd;fill:#ED1B2F;}
</style>
<g>
	<polygon class="st0" points="-22.8,-22 538.2,-22 538.2,539 -22.8,539 	"/>
	<path class="st1" d="M164,350.5c26.3,46.6,76.5,93.2,161.3,95.6c58.5,0,106.3-23.9,142.2-66.9c6-8.4,13.1-19.1,16.7-27.5h4.8
		C450.2,444.4,362,508.2,262.7,509.4h-5.5c-43-1.2-82.4-9.6-120.7-31.1c0,0-75.3-34.6-111.1-126.6h139.8L164,350.5L164,350.5z"/>
	<path class="st2" d="M164,350.5c26.3,46.6,76.5,93.2,161.3,95.6c58.5,0,106.3-23.9,142.2-66.9c6-8.4,13.1-19.1,16.7-27.5h4.8
		C450.2,444.4,362,508.2,262.7,509.4 M257.1,509.4c-43-1.2-82.4-9.6-120.7-31.1c0,0-75.3-34.6-111.1-126.6h139.8"/>
	<path class="st3" d="M234.4,203.6c9.6,14.3,16.7,23.9,22.7,33.5c7.2-10.8,11.9-17.9,22.7-33.5c16.7,0,37,0,53.8,0
		c-15.5,20.3-31.1,41.8-41.8,55c14.3,19.1,27.5,37,41.8,55h-55c-7.2-10.8-13.1-20.3-21.5-32.3c-6,9.6-15.5,22.7-22.7,32.3
		c-17.9,0-38.2,0-53.8,0c13.1-17.9,27.5-37,41.8-55c-13.1-16.7-29.9-37-41.8-55C196.2,203.6,210.6,203.6,234.4,203.6L234.4,203.6
		L234.4,203.6z"/>
	<path class="st2" d="M234.4,203.6c9.6,14.3,16.7,23.9,22.7,33.5c7.2-10.8,11.9-17.9,22.7-33.5c16.7,0,37,0,53.8,0
		c-15.5,20.3-31.1,41.8-41.8,55c14.3,19.1,27.5,37,41.8,55h-55c-7.2-10.8-13.1-20.3-21.5-32.3c-6,9.6-15.5,22.7-22.7,32.3
		c-17.9,0-38.2,0-53.8,0c13.1-17.9,27.5-37,41.8-55c-13.1-16.7-29.9-37-41.8-55C196.2,203.6,210.6,203.6,234.4,203.6"/>
	<path class="st3" d="M423.2,235.8c8.4-10.8,16.7-21.5,25.1-32.3c16.7,0,35.8,0,51.4,0c-21.5,27.5-45.4,57.3-53.8,68.1v41.8h-46.6
		v-41.8c-9.6-13.1-43-55-52.6-68.1h51.4L423.2,235.8L423.2,235.8z"/>
	<path class="st2" d="M423.2,235.8c8.4-10.8,16.7-21.5,25.1-32.3c16.7,0,35.8,0,51.4,0c-21.5,27.5-45.4,57.3-53.8,68.1v41.8h-46.6
		v-41.8c-9.6-13.1-43-55-52.6-68.1h51.4L423.2,235.8"/>
	<path class="st1" d="M349.1,166.5c-25.1-45.4-75.3-92-160.1-95.6c-59.7,0-106.3,25.1-142.2,66.9c-6,8.4-13.1,19.1-17.9,27.5h-3.6
		C64.2,72.4,152.8,8.5,252.4,7.6c1.6,0,3.2,0,4.7,0c43,2.4,82.4,10.8,120.7,31.1c0,0,74.1,34.6,111.1,126.6h-141L349.1,166.5
		L349.1,166.5z"/>
	<path class="st2" d="M349.1,166.5c-25.1-45.4-75.3-92-160.1-95.6c-59.7,0-106.3,25.1-142.2,66.9c-6,8.4-13.1,19.1-17.9,27.5h-3.6
		C64.2,72.4,152.8,8.5,252.4,7.6c1.6,0,3.2,0,4.7,0c43,2.4,82.4,10.8,120.7,31.1c0,0,74.1,34.6,111.1,126.6h-141"/>
	<path class="st3" d="M135.3,313.5H45.7c-20.3,0-29.9-14.3-29.9-25.1c0-29.9,0-40.6,0-60.9c3.6-17.9,19.1-23.9,29.9-23.9h89.6
		c28.7-1.2,28.7,23.9,28.7,23.9c0,14.3,0,34.6,0,60.9C164,288.4,166.3,313.5,135.3,313.5L135.3,313.5z M62.4,258.5
		c0,4.8,0,2.4,0,10.8c0,0,0,11.9,11.9,11.9c6,0,11.9,0,16.7,0c7.2,0,10.8,0,16.7,0c8.4,0,10.8-3.6,10.8-11.9
		c0-7.2,1.2-19.1,1.2-21.5c-1.2-7.2-6-11.9-11.9-11.9c-21.5,0,0,0-16.7,0c-4.8,0-10.8,0-16.7,0c-11.9-1.2-11.9,10.8-11.9,10.8
		C62.4,254.9,62.4,256.1,62.4,258.5L62.4,258.5z"/>
	<path class="st3" d="M135.3,313.5H45.7c-20.3,0-29.9-14.3-29.9-25.1c0-29.9,0-40.6,0-60.9c3.6-17.9,19.1-23.9,29.9-23.9h89.6
		c28.7-1.2,28.7,23.9,28.7,23.9c0,14.3,0,34.6,0,60.9C164,288.4,166.3,313.5,135.3,313.5L135.3,313.5z M62.4,258.5
		c0,4.8,0,2.4,0,10.8c0,0,0,11.9,11.9,11.9c6,0,11.9,0,16.7,0c7.2,0,10.8,0,16.7,0c8.4,0,10.8-3.6,10.8-11.9
		c0-7.2,1.2-19.1,1.2-21.5c0-7.2-6-11.9-11.9-11.9c-21.5,0,0,0-16.7,0c-4.8,0-10.8,0-16.7,0c-11.9-1.2-11.9,10.8-11.9,10.8
		C62.4,254.9,62.4,256.1,62.4,258.5L62.4,258.5L62.4,258.5z"/>
	<path class="st2" d="M135.3,313.5H45.7c-20.3,0-29.9-14.3-29.9-25.1c0-29.9,0-40.6,0-60.9c3.6-17.9,19.1-23.9,29.9-23.9h89.6
		c28.7-1.2,28.7,23.9,28.7,23.9c0,14.3,0,34.6,0,60.9C164,288.4,166.3,313.5,135.3,313.5L135.3,313.5z M62.4,258.5
		c0,4.8,0,2.4,0,10.8c0,0,0,11.9,11.9,11.9c6,0,11.9,0,16.7,0c7.2,0,10.8,0,16.7,0c8.4,0,10.8-3.6,10.8-11.9
		c0-7.2,1.2-19.1,1.2-21.5c0-7.2-6-11.9-11.9-11.9c-21.5,0,0,0-16.7,0c-4.8,0-10.8,0-16.7,0c-11.9-1.2-11.9,10.8-11.9,10.8
		C62.4,254.9,62.4,256.1,62.4,258.5"/>
</g>
</svg>
