<?xml version="1.0" encoding="utf-8"?>
<!-- Generator: Adobe Illustrator 24.1.2, SVG Export Plug-In . SVG Version: 6.00 Build 0)  -->
<svg version="1.1" id="Capa_1" xmlns="http://www.w3.org/2000/svg" xmlns:xlink="http://www.w3.org/1999/xlink" x="0px" y="0px"
	 viewBox="0 0 512 512" style="enable-background:new 0 0 512 512;" xml:space="preserve">
<style type="text/css">
	.st0{fill:#0190FF;}
	.st1{fill:#2B01BE;}
</style>
<path id="path4664" class="st0" d="M33.4,228.5c15.9-58.1,82-71.9,142.9-73.6c50.1-1.4,105.9,5.2,105.9,5.2L256,256
	c0,0-55.8-6.6-105.9-5.2c-60.9,1.7-127,15.5-142.9,73.6L33.4,228.5z"/>
<path id="path4668" class="st1" d="M413.4,408.1c-179.2-11.2-387.3-103.6-380-179.6L8.7,318.9C1.2,396.5,194.4,488.6,387.2,504
	L413.4,408.1z"/>
<path id="path4672" class="st1" d="M478.6,283.5c-15.9,58.1-82,71.9-142.9,73.6c-50.1,1.4-105.9-5.2-105.9-5.2L256,256
	c0,0,55.8,6.6,105.9,5.2c60.9-1.7,127-15.5,142.9-73.6L478.6,283.5z"/>
<path id="path4674" class="st0" d="M98.6,103.9c179.2,11.2,387.3,103.6,380,179.6l24.7-90.4C510.8,115.5,317.6,23.4,124.8,8
	L98.6,103.9z"/>
</svg>
