<?xml version="1.0" encoding="utf-8"?>
<!-- Generator: Adobe Illustrator 24.1.2, SVG Export Plug-In . SVG Version: 6.00 Build 0)  -->
<svg version="1.1" id="Capa_1" xmlns="http://www.w3.org/2000/svg" xmlns:xlink="http://www.w3.org/1999/xlink" x="0px" y="0px"
	 viewBox="0 0 512 512" style="enable-background:new 0 0 512 512;" xml:space="preserve">
<style type="text/css">
	.st0{fill:#E82127;}
</style>
<g>
	<path class="st0" d="M256,507l68.7-386.4c65.5,0,86.1,7.2,89.1,36.5c0,0,43.9-16.4,66.1-49.6c-86.5-40.1-173.3-41.9-173.3-41.9
		l-50.7,61.7l0.1,0l-50.7-61.7c0,0-86.9,1.8-173.3,41.9c22.1,33.3,66.1,49.6,66.1,49.6c3-29.3,23.6-36.5,88.7-36.5L256,507"/>
	<path class="st0" d="M256,47.7c69.9-0.5,149.9,10.8,231.8,46.5c10.9-19.7,13.8-28.4,13.8-28.4C412,30.4,328.2,18.3,256,18
		c-72.2,0.3-156,12.4-245.5,47.8c0,0,4,10.7,13.7,28.4C106.1,58.6,186.1,47.2,256,47.7L256,47.7"/>
</g>
</svg>
