<svg id="Layer_1" data-name="Layer 1" xmlns="http://www.w3.org/2000/svg" xmlns:xlink="http://www.w3.org/1999/xlink" viewBox="0 0 1025 1025.5"><defs><style>.cls-1{fill:url(#radial-gradient);}.cls-2{fill:url(#radial-gradient-2);}.cls-3{mask:url(#mask);}.cls-4{fill:none;stroke:#002744;}.cls-5{mask:url(#mask-2);}</style><radialGradient id="radial-gradient" cx="312.39" cy="712.39" r="1" gradientTransform="matrix(0, 512.5, 512.5, 0, -364587, -159587)" gradientUnits="userSpaceOnUse"><stop offset="0" stop-color="#fff" stop-opacity="0.2"/><stop offset="1" stop-color="#fff" stop-opacity="0.02"/></radialGradient><radialGradient id="radial-gradient-2" cx="312.39" cy="712.39" r="1" xlink:href="#radial-gradient"/><mask id="mask" x="0" y="0" width="1025" height="1025" maskUnits="userSpaceOnUse"><g id="mask0_13_586" data-name="mask0 13 586"><circle class="cls-1" cx="512.5" cy="512.5" r="512.5"/></g></mask><mask id="mask-2" x="0" y="0.5" width="1025" height="1025" maskUnits="userSpaceOnUse"><g id="mask0_13_586-2" data-name="mask0 13 586"><circle class="cls-2" cx="512.5" cy="513" r="512.5"/></g></mask></defs><g class="cls-3"><circle class="cls-4" cx="511.66" cy="512.5" r="33.05"/><circle class="cls-4" cx="511.66" cy="512.5" r="83.38"/><circle class="cls-4" cx="511.66" cy="512.5" r="133.71"/><circle class="cls-4" cx="511.66" cy="512.5" r="184.03"/><circle class="cls-4" cx="511.66" cy="512.5" r="234.36"/><circle class="cls-4" cx="511.66" cy="512.5" r="284.69"/><circle class="cls-4" cx="511.66" cy="512.5" r="335.02"/><circle class="cls-4" cx="511.66" cy="512.5" r="385.34"/><circle class="cls-4" cx="511.66" cy="512.5" r="435.67"/><circle class="cls-4" cx="511.66" cy="512.5" r="469.22"/><circle class="cls-4" cx="512.5" cy="512.5" r="512"/></g><g class="cls-5"><circle class="cls-4" cx="511.66" cy="513" r="33.05"/><circle class="cls-4" cx="511.66" cy="513" r="83.38"/><circle class="cls-4" cx="511.66" cy="513" r="133.71"/><circle class="cls-4" cx="511.66" cy="513" r="184.03"/><circle class="cls-4" cx="511.66" cy="513" r="234.36"/><circle class="cls-4" cx="511.66" cy="513" r="284.69"/><circle class="cls-4" cx="511.66" cy="513" r="335.02"/><circle class="cls-4" cx="511.66" cy="513" r="385.34"/><circle class="cls-4" cx="511.66" cy="513" r="435.67"/><circle class="cls-4" cx="511.66" cy="513" r="469.22"/><circle class="cls-4" cx="512.5" cy="513" r="512"/></g></svg>