<svg id="Layer_1" data-name="Layer 1" xmlns="http://www.w3.org/2000/svg" xmlns:xlink="http://www.w3.org/1999/xlink" viewBox="0 0 74.63 64.5"><defs><style>.cls-1{fill:#d8d8d8;}.cls-2{fill:url(#linear-gradient);}.cls-3{fill:url(#linear-gradient-2);}.cls-4{fill:url(#linear-gradient-3);}.cls-5{fill:url(#linear-gradient-4);}</style><linearGradient id="linear-gradient" x1="-1.73" y1="113.26" x2="58.72" y2="52.31" gradientUnits="userSpaceOnUse"><stop offset="0" stop-color="#0050bf"/><stop offset="0.2" stop-color="#0a67c7"/><stop offset="0.6" stop-color="#24a0db"/><stop offset="1" stop-color="#41e0f2"/></linearGradient><linearGradient id="linear-gradient-2" x1="-2585.38" y1="1096.79" x2="-2579.05" y2="1085.92" gradientTransform="matrix(-1, 0, 0, 1, -2527.22, -1043.84)" gradientUnits="userSpaceOnUse"><stop offset="0.01"/><stop offset="1" stop-color="#1176cc" stop-opacity="0"/></linearGradient><linearGradient id="linear-gradient-3" x1="108.35" y1="104" x2="61.87" y2="54.98" gradientUnits="userSpaceOnUse"><stop offset="0.01" stop-color="#0050bf"/><stop offset="0.2" stop-color="#0a67c7"/><stop offset="0.6" stop-color="#24a0db"/><stop offset="1" stop-color="#41e0f2"/></linearGradient><linearGradient id="linear-gradient-4" x1="-67.21" y1="1104.13" x2="-53.97" y2="1081.38" gradientTransform="translate(122.78 -1043.84)" gradientUnits="userSpaceOnUse"><stop offset="0"/><stop offset="1" stop-color="#1176cc" stop-opacity="0"/></linearGradient></defs><path class="cls-1" d="M57.13,33.39V60.2L50,51.77,21.84,18.47a.78.78,0,0,1,1-1.17l20.1,7.25H43L52,27.87a7.23,7.23,0,0,1,1.38.62c.42.21.83.48,1.18.69C56.37,30.42,57.13,31.74,57.13,33.39Z" transform="translate(-21.68 -17.22)"/><path class="cls-2" d="M23.7,81.68a.66.66,0,0,1-.69-1.1l4.63-4.91c3-3.38,16-17.75,22.73-24.87,3.31-3.52,6.76-6.56,6.76-12.57V67.45c0,2.28-1.24,3.94-4.14,5.6a.26.26,0,0,1-.14.06Z" transform="translate(-21.68 -17.22)"/><path class="cls-3" d="M57.13,34.71,44.56,38.23l-1.38,5.46,6.56,7.73.07.07a4,4,0,0,0,.56-.62c2.69-2.9,5.45-5.39,6.42-9.46a14.17,14.17,0,0,0,.34-3.11" transform="translate(-21.68 -17.22)"/><path class="cls-1" d="M60.87,33.39V60.2L68,51.77,96.16,18.54a.78.78,0,0,0-1-1.17L75.1,24.62H75l-9,3.32a7.23,7.23,0,0,0-1.38.62c-.42.21-.83.48-1.18.69A4.75,4.75,0,0,0,60.87,33.39Z" transform="translate(-21.68 -17.22)"/><path class="cls-4" d="M65.15,73.18a.24.24,0,0,1-.14-.07c-2.9-1.58-4.14-3.31-4.14-5.59V38.23c0,6.08,3.45,9.05,6.76,12.57,6.64,7.12,19.69,21.49,22.73,24.87L95,80.58a.66.66,0,0,1-.69,1.1Z" transform="translate(-21.68 -17.22)"/><path class="cls-5" d="M60.87,34.71l12.57,3.52,1.38,5.46-6.56,7.73h-.07c-.21-.2-.35-.41-.56-.62-2.69-2.9-5.45-5.39-6.42-9.46a14.17,14.17,0,0,1-.34-3.11" transform="translate(-21.68 -17.22)"/></svg>