<svg width="193" height="21" viewBox="0 0 193 21" fill="none" xmlns="http://www.w3.org/2000/svg">
<path d="M4.02677 3.9032V8.96544H10.8148V12.1293H4.02677V17.4792H11.6776V20.7581H0V0.624268H11.6776V3.9032H4.02677Z" fill="white"/>
<path d="M26.1741 0.681763V13.1072C26.1741 14.4878 26.5192 15.5233 27.2671 16.2136C27.9574 16.9614 28.9928 17.3066 30.2584 17.3066C31.5815 17.3066 32.5594 16.9614 33.3072 16.2136C33.9975 15.4658 34.4002 14.4303 34.4002 13.1072V0.681763H38.427V13.0497C38.427 14.7755 38.0818 16.2136 37.334 17.3641C36.5862 18.5146 35.6082 19.435 34.4002 20.0103C33.1922 20.5855 31.8116 20.8731 30.2584 20.8731C28.7627 20.8731 27.3821 20.5855 26.1741 20.0103C24.9661 19.435 23.9881 18.5146 23.2978 17.3641C22.6075 16.2136 22.2048 14.7179 22.2048 13.0497V0.681763H26.1741Z" fill="white"/>
<path d="M53.1534 3.9032V8.96544H59.9413V12.1293H53.1534V17.4792H60.8042V20.7581H49.1266V0.624268H60.8042V3.9032H53.1534Z" fill="white"/>
<path d="M81.686 20.7581L77.2565 12.9346H75.3582V20.7581H71.3314V0.681763H78.8672C80.4204 0.681763 81.7435 0.969386 82.8365 1.48711C83.9295 2.06237 84.7348 2.75267 85.3101 3.7306C85.8278 4.651 86.1154 5.68645 86.1154 6.83696C86.1154 8.16004 85.7128 9.36808 84.9649 10.4035C84.2171 11.4965 83.0666 12.1868 81.5709 12.5895L86.3455 20.7581H81.686ZM75.3582 9.88581H78.6947C79.7876 9.88581 80.593 9.59817 81.1683 9.08045C81.686 8.56272 81.9736 7.8149 81.9736 6.89449C81.9736 5.97408 81.686 5.28377 81.1683 4.76605C80.6505 4.24832 79.8452 4.01822 78.6947 4.01822H75.3582V9.88581Z" fill="white"/>
<path d="M108.033 20.7581L100.727 11.7842V20.7006H96.7002V0.624268H100.727V9.65573L108.033 0.624268H112.865L104.581 10.5761L113.095 20.7006H108.033V20.7581Z" fill="white"/>
<path d="M152.27 20.7581L153.593 16.9039L154.686 13.6825L157.619 5.28382L160.496 13.6825L161.589 16.9039L162.854 20.7581H167.111L159.92 0.624268H155.203L148.013 20.7581H152.27Z" fill="white"/>
<path d="M192.767 0.681763L185.979 13.7975V20.8156H181.953V13.7975L175.107 0.681763H179.652L183.966 9.88581L188.28 0.681763H192.767Z" fill="white"/>
<path d="M128.109 3.32789C129.029 3.84562 129.432 4.36335 129.432 5.11118V14.2002C129.432 12.3019 128.339 11.3814 127.304 10.2885C125.233 8.04497 121.148 3.61552 120.228 2.58007L118.79 1.02688C118.617 0.854301 118.79 0.624214 119.02 0.681739L128.109 3.32789Z" fill="url(#paint0_linear_90_109)"/>
<path d="M128.109 17.3641C129.029 16.9039 129.432 16.3862 129.432 15.7534V7.41223L120.573 20.528C120.458 20.7581 120.688 20.9882 120.861 20.8732L128.109 17.3641Z" fill="white"/>
<path d="M133.459 3.32789C132.538 3.84562 132.136 4.36335 132.136 5.11118V14.2002C132.136 12.3019 133.229 11.3814 134.264 10.2885C136.335 8.04497 140.419 3.61552 141.34 2.58007L142.778 1.02688C142.951 0.854301 142.778 0.624214 142.548 0.681739L133.459 3.32789Z" fill="url(#paint1_linear_90_109)"/>
<path d="M133.459 17.3641C132.538 16.9039 132.136 16.3862 132.136 15.7534V7.41223L140.995 20.528C141.11 20.7581 140.88 20.9882 140.707 20.8732L133.459 17.3641Z" fill="white"/>
<defs>
<linearGradient id="paint0_linear_90_109" x1="128.577" y1="12.6638" x2="123.991" y2="2.60245" gradientUnits="userSpaceOnUse">
<stop offset="0.00791227" stop-color="#0050BF"/>
<stop offset="0.2003" stop-color="#0A67C7"/>
<stop offset="0.6002" stop-color="#24A0DB"/>
<stop offset="1" stop-color="#41E0F2"/>
</linearGradient>
<linearGradient id="paint1_linear_90_109" x1="132.973" y1="12.6638" x2="137.56" y2="2.60245" gradientUnits="userSpaceOnUse">
<stop offset="0.00791227" stop-color="#0050BF"/>
<stop offset="0.2003" stop-color="#0A67C7"/>
<stop offset="0.6002" stop-color="#24A0DB"/>
<stop offset="1" stop-color="#41E0F2"/>
</linearGradient>
</defs>
</svg>
