<svg width="67" height="74" viewBox="0 0 67 74" fill="none" xmlns="http://www.w3.org/2000/svg">
<g filter="url(#filter0_d_12_712)">
<path fill-rule="evenodd" clip-rule="evenodd" d="M33.8082 2.45677C44.8834 2.45677 53.8616 11.4109 53.8616 22.4565C53.8616 33.5025 44.8834 42.4566 33.8082 42.4566C22.733 42.4566 13.7547 33.5025 13.7547 22.4565C13.7547 11.4109 22.733 2.45677 33.8082 2.45677Z" fill="#FAFAFA"/>
</g>
<path fill-rule="evenodd" clip-rule="evenodd" d="M33.8081 14.4567C38.2381 14.4567 41.8295 18.0386 41.8295 22.4565C41.8295 26.8748 38.2381 30.4567 33.8081 30.4567C29.378 30.4567 25.7867 26.8748 25.7867 22.4565C25.7867 18.0386 29.378 14.4567 33.8081 14.4567Z" fill="#DDDDDD" fill-opacity="0.01"/>
<path fill-rule="evenodd" clip-rule="evenodd" d="M33.8081 14.4567C38.2381 14.4567 41.8295 18.0386 41.8295 22.4565C41.8295 26.8748 38.2381 30.4567 33.8081 30.4567C29.378 30.4567 25.7867 26.8748 25.7867 22.4565C25.7867 18.0386 29.378 14.4567 33.8081 14.4567Z" fill="url(#paint0_linear_12_712)"/>
<defs>
<filter id="filter0_d_12_712" x="0.754639" y="2.45676" width="66.1069" height="70.9998" filterUnits="userSpaceOnUse" color-interpolation-filters="sRGB">
<feFlood flood-opacity="0" result="BackgroundImageFix"/>
<feColorMatrix in="SourceAlpha" type="matrix" values="0 0 0 0 0 0 0 0 0 0 0 0 0 0 0 0 0 0 127 0" result="hardAlpha"/>
<feOffset dy="18"/>
<feGaussianBlur stdDeviation="6.5"/>
<feColorMatrix type="matrix" values="0 0 0 0 0 0 0 0 0 0.278431 0 0 0 0 0.686275 0 0 0 0.25 0"/>
<feBlend mode="normal" in2="BackgroundImageFix" result="effect1_dropShadow_12_712"/>
<feBlend mode="normal" in="SourceGraphic" in2="effect1_dropShadow_12_712" result="shape"/>
</filter>
<linearGradient id="paint0_linear_12_712" x1="43.0828" y1="31.7067" x2="43.0828" y2="12.7067" gradientUnits="userSpaceOnUse">
<stop stop-color="#DAE9FF"/>
<stop offset="1" stop-color="#DDDDDD"/>
</linearGradient>
</defs>
</svg>
