<svg id="Layer_1" data-name="Layer 1" xmlns="http://www.w3.org/2000/svg" xmlns:xlink="http://www.w3.org/1999/xlink" viewBox="0 0 559.4 90.77"><defs><style>.cls-1{fill:#062150;}.cls-2{fill:url(#linear-gradient);}.cls-3{fill:url(#linear-gradient-2);}.cls-4{fill:url(#linear-gradient-3);}.cls-5{fill:url(#linear-gradient-4);}.cls-6{fill:url(#linear-gradient-5);}.cls-7{fill:url(#linear-gradient-6);}.cls-8{fill:url(#linear-gradient-7);}.cls-9{fill:url(#linear-gradient-8);}.cls-10{fill:url(#linear-gradient-9);}.cls-11{fill:url(#linear-gradient-10);}.cls-12{fill:url(#linear-gradient-11);}.cls-13{fill:url(#linear-gradient-12);}</style><linearGradient id="linear-gradient" x1="31.57" y1="-836.76" x2="9.22" y2="-811.74" gradientTransform="matrix(1, 0, 0, -1, 391.87, -783.29)" gradientUnits="userSpaceOnUse"><stop offset="0.01" stop-color="#0050bf"/><stop offset="0.2" stop-color="#0a67c7"/><stop offset="0.6" stop-color="#24a0db"/><stop offset="1" stop-color="#41e0f2"/></linearGradient><linearGradient id="linear-gradient-2" x1="-525.13" y1="489.18" x2="-549.47" y2="469.57" gradientTransform="matrix(-1, 0, 0, 1, -123.22, -415.84)" xlink:href="#linear-gradient"/><linearGradient id="linear-gradient-3" x1="-544.26" y1="469.99" x2="-539.65" y2="462.07" gradientTransform="matrix(-1, 0, 0, 1, -123.22, -415.84)" gradientUnits="userSpaceOnUse"><stop offset="0.01"/><stop offset="1" stop-color="#1176cc" stop-opacity="0"/></linearGradient><linearGradient id="linear-gradient-4" x1="-814.96" y1="-836.77" x2="-837.3" y2="-811.76" gradientTransform="translate(-392.3 -783.29) rotate(180)" xlink:href="#linear-gradient"/><linearGradient id="linear-gradient-5" x1="321.37" y1="489.19" x2="297.02" y2="469.59" gradientTransform="translate(122.78 -415.84)" xlink:href="#linear-gradient"/><linearGradient id="linear-gradient-6" x1="302.28" y1="469.99" x2="306.88" y2="462.08" gradientTransform="translate(122.78 -415.84)" xlink:href="#linear-gradient-3"/><linearGradient id="linear-gradient-7" x1="-337.11" y1="-835.1" x2="-380.27" y2="-786.79" xlink:href="#linear-gradient"/><linearGradient id="linear-gradient-8" x1="-136.4" y1="506.03" x2="-183.42" y2="468.17" gradientTransform="matrix(-1, 0, 0, 1, -123.22, -415.84)" xlink:href="#linear-gradient"/><linearGradient id="linear-gradient-9" x1="-173.36" y1="468.97" x2="-164.45" y2="453.67" xlink:href="#linear-gradient-3"/><linearGradient id="linear-gradient-10" x1="-445.55" y1="-835.14" x2="-488.71" y2="-786.82" gradientTransform="translate(-392.3 -783.29) rotate(180)" xlink:href="#linear-gradient"/><linearGradient id="linear-gradient-11" x1="-28.02" y1="506.07" x2="-75.04" y2="468.2" gradientTransform="translate(122.78 -415.84)" xlink:href="#linear-gradient"/><linearGradient id="linear-gradient-12" x1="-64.89" y1="468.97" x2="-56" y2="453.69" gradientTransform="translate(122.78 -415.84)" xlink:href="#linear-gradient-3"/></defs><path class="cls-1" d="M137,38.4V49.8h15.2v7.1H137v12h17.2v7.4H128V31.1h26.2v7.4H137Z" transform="translate(-1.4 -7.68)"/><path class="cls-1" d="M186.8,31.2V59.1c0,3.1.8,5.4,2.5,7,1.5,1.7,3.9,2.5,6.7,2.5,3,0,5.2-.8,6.8-2.5a10.25,10.25,0,0,0,2.5-7V31.2h9V59a17.28,17.28,0,0,1-2.5,9.7,16.28,16.28,0,0,1-6.6,5.9,23.47,23.47,0,0,1-18.5,0,16.08,16.08,0,0,1-6.5-5.9,19.35,19.35,0,0,1-2.5-9.7V31.2Z" transform="translate(-1.4 -7.68)"/><path class="cls-1" d="M247.3,38.4V49.8h15.2v7.1H247.3v12h17.2v7.4H238.3V31.1h26.2v7.4H247.3Z" transform="translate(-1.4 -7.68)"/><path class="cls-1" d="M311.4,76.3l-9.9-17.6h-4.3V76.3h-9V31.2h16.9A19.88,19.88,0,0,1,314,33a13,13,0,0,1,5.6,5,13.77,13.77,0,0,1,1.8,7,13.21,13.21,0,0,1-2.6,8c-1.7,2.5-4.3,4-7.6,4.9l10.7,18.3H311.4ZM297.2,51.9h7.5a7.85,7.85,0,0,0,5.6-1.8,6.57,6.57,0,0,0,1.8-4.9,6.33,6.33,0,0,0-1.8-4.8c-1.2-1.2-3-1.7-5.6-1.7h-7.5Z" transform="translate(-1.4 -7.68)"/><path class="cls-1" d="M370.5,76.3,354.1,56.2v20h-9V31.1h9V51.4l16.4-20.3h10.8L362.7,53.4l19.1,22.7H370.4v.2Z" transform="translate(-1.4 -7.68)"/><path class="cls-1" d="M469.8,76.3l3-8.7,2.5-7.2,6.6-18.9,6.5,18.9,2.5,7.2,2.8,8.7h9.6L487,31.1H476.4L460.3,76.3Z" transform="translate(-1.4 -7.68)"/><path class="cls-1" d="M560.8,31.2,545.6,60.6V76.4h-9V60.7L521.1,31.2h10.2L541,51.9l9.7-20.7Z" transform="translate(-1.4 -7.68)"/><path class="cls-2" d="M421.7,42.4V61.9l-5.2-6.1L395.9,31.5a.55.55,0,0,1,.7-.8L411.2,36h.1l6.6,2.4a10.37,10.37,0,0,1,1,.4,4.05,4.05,0,0,1,.9.5A3.7,3.7,0,0,1,421.7,42.4Z" transform="translate(-1.4 -7.68)"/><path class="cls-3" d="M397.3,77.6a.49.49,0,0,1-.5-.8l3.4-3.6c2.2-2.5,11.7-12.9,16.5-18.1,2.4-2.6,4.9-4.8,4.9-9.2V67.2c0,1.7-.9,2.9-3,4.1h-.1Z" transform="translate(-1.4 -7.68)"/><path class="cls-4" d="M421.7,43.3l-9.1,2.6-1,4,4.8,5.6h0a2.18,2.18,0,0,0,.4-.5c2-2.1,4-3.9,4.7-6.9a8.22,8.22,0,0,0,.2-2.3" transform="translate(-1.4 -7.68)"/><path class="cls-5" d="M424.4,42.4V61.9l5.2-6.1,20.5-24.2a.55.55,0,0,0-.7-.8l-14.6,5.3h-.1l-6.6,2.4a10.37,10.37,0,0,0-1,.4,4.05,4.05,0,0,0-.9.5A3.53,3.53,0,0,0,424.4,42.4Z" transform="translate(-1.4 -7.68)"/><path class="cls-6" d="M427.5,71.3h0c-2.2-1.2-3.1-2.5-3.1-4.1V45.9c0,4.4,2.5,6.6,4.9,9.2,4.9,5.2,14.4,15.7,16.5,18.1l3.4,3.6a.49.49,0,0,1-.5.8Z" transform="translate(-1.4 -7.68)"/><path class="cls-7" d="M424.4,43.3l9.1,2.6,1,4-4.8,5.6h0l-.4-.4c-2-2.1-4-3.9-4.7-6.9a8.22,8.22,0,0,1-.2-2.3" transform="translate(-1.4 -7.68)"/><path class="cls-8" d="M51.41,30.43V68.1l-10-11.78L1.57,9.38A1.05,1.05,0,0,1,2.93,7.84l28.2,10.23h.19l12.75,4.64a20.37,20.37,0,0,1,1.93.77,7.6,7.6,0,0,1,1.74,1C50.25,26.19,51.41,28.12,51.41,30.43Z" transform="translate(-1.4 -7.68)"/><path class="cls-9" d="M4.28,98.43a1,1,0,0,1-1-1.55l6.57-6.95C14.13,85.1,32.48,65,41.75,55c4.64-5,9.47-9.28,9.47-17.77V78.34c0,3.28-1.74,5.6-5.8,7.92h-.19Z" transform="translate(-1.4 -7.68)"/><path class="cls-10" d="M51.41,32.17l-17.58,5L31.9,44.92l9.27,10.82h0a4.1,4.1,0,0,0,.77-1c3.87-4.05,7.73-7.53,9.08-13.33A15.69,15.69,0,0,0,51.41,37" transform="translate(-1.4 -7.68)"/><path class="cls-11" d="M56.62,30.43V68.1L66.67,56.32l39.6-46.75A1.05,1.05,0,0,0,104.91,8L76.71,18.27h-.19L63.77,22.9a20.37,20.37,0,0,0-1.93.77,8,8,0,0,0-1.74,1Q56.62,27,56.62,30.43Z" transform="translate(-1.4 -7.68)"/><path class="cls-12" d="M62.61,86.26h0c-4.25-2.32-6-4.83-6-7.92V37.2c0,8.49,4.83,12.74,9.47,17.77C75.55,65,93.9,85.29,98,89.93l6.57,6.95a1,1,0,0,1-1,1.55Z" transform="translate(-1.4 -7.68)"/><path class="cls-13" d="M56.62,32.17l17.58,5,1.93,7.72L66.86,55.74h0L66.09,55c-3.86-4.06-7.73-7.54-9.08-13.33a15.73,15.73,0,0,1-.39-4.44" transform="translate(-1.4 -7.68)"/></svg>