<?xml version="1.0" encoding="utf-8"?>
<!-- Generator: Adobe Illustrator 24.1.2, SVG Export Plug-In . SVG Version: 6.00 Build 0)  -->
<svg version="1.1" id="Layer_1" xmlns="http://www.w3.org/2000/svg" xmlns:xlink="http://www.w3.org/1999/xlink" x="0px" y="0px"
	 viewBox="0 0 305 257" style="enable-background:new 0 0 305 257;" xml:space="preserve">
<style type="text/css">
	.st0{fill:url(#SVGID_1_);}
	.st1{fill:url(#SVGID_2_);}
	.st2{fill:url(#SVGID_3_);}
	.st3{fill:url(#SVGID_4_);}
	.st4{fill:url(#SVGID_5_);}
	.st5{fill:url(#SVGID_6_);}
</style>
<g>
	<g>
		
			<linearGradient id="SVGID_1_" gradientUnits="userSpaceOnUse" x1="-237.7655" y1="1018.7166" x2="-354.2293" y2="888.3356" gradientTransform="matrix(1 0 0 1 391.8659 -892.4859)">
			<stop  offset="7.912270e-03" style="stop-color:#0050BF"/>
			<stop  offset="0.2003" style="stop-color:#0A67C7"/>
			<stop  offset="0.6002" style="stop-color:#24A0DB"/>
			<stop  offset="1" style="stop-color:#41E0F2"/>
		</linearGradient>
		<path class="st0" d="M144.9,68.4v101.7l-27-31.9L10.8,11.7C9.1,9.1,11.9,6,14.6,7.3l76.3,27.6c0,0,0.1,0.1,0.3,0.1l34.4,12.5
			c1.8,0.7,3.6,1.4,5.3,2.3c1.5,0.8,3.1,1.7,4.5,2.7C142,57.1,144.9,62,144.9,68.4z"/>
		
			<linearGradient id="SVGID_2_" gradientUnits="userSpaceOnUse" x1="-583.2533" y1="-35.7548" x2="-710.1547" y2="66.4256" gradientTransform="matrix(-1 0 0 -1 -541.2155 194.1629)">
			<stop  offset="7.912270e-03" style="stop-color:#0050BF"/>
			<stop  offset="0.2003" style="stop-color:#0A67C7"/>
			<stop  offset="0.6002" style="stop-color:#24A0DB"/>
			<stop  offset="1" style="stop-color:#41E0F2"/>
		</linearGradient>
		<path class="st1" d="M17.9,251.9c-2.7,0.7-4.4-2.2-2.7-4.2l17.7-18.6c11.3-12.8,61-67.5,86.2-94.5c12.6-13.5,25.7-24.8,25.7-47.8
			v111c0,8.7-4.6,15-15.8,21.2c0,0-0.2,0.2-0.5,0.2L17.9,251.9z"/>
		
			<linearGradient id="SVGID_3_" gradientUnits="userSpaceOnUse" x1="-682.6337" y1="64.2555" x2="-658.6066" y2="105.5415" gradientTransform="matrix(-1 0 0 -1 -541.2155 194.1629)">
			<stop  offset="7.912492e-03" style="stop-color:#000000"/>
			<stop  offset="1" style="stop-color:#1176CC;stop-opacity:0"/>
		</linearGradient>
		<path class="st2" d="M144.9,73.4L97.2,86.8L92,107.5l24.8,29.3l0.2,0.2c0.8-0.8,1.5-1.6,2.2-2.4c10.3-11,20.9-20.5,24.4-36.1
			c0.9-3.6,1.2-7.4,1.2-11.7"/>
		
			<linearGradient id="SVGID_4_" gradientUnits="userSpaceOnUse" x1="-960.2567" y1="1018.6981" x2="-1076.7206" y2="888.3171" gradientTransform="matrix(-1 0 0 1 -810.3037 -892.4859)">
			<stop  offset="7.912270e-03" style="stop-color:#0050BF"/>
			<stop  offset="0.2003" style="stop-color:#0A67C7"/>
			<stop  offset="0.6002" style="stop-color:#24A0DB"/>
			<stop  offset="1" style="stop-color:#41E0F2"/>
		</linearGradient>
		<path class="st3" d="M159.1,68.4v101.7l27-31.9L293.2,11.8c1.7-2.7-1.1-5.8-3.7-4.4l-76.2,27.5c0,0-0.1,0.1-0.3,0.1l-34.4,12.5
			c-1.8,0.7-3.6,1.4-5.3,2.3c-1.5,0.8-3.1,1.7-4.5,2.7C162,57.1,159.1,62,159.1,68.4z"/>
		
			<linearGradient id="SVGID_5_" gradientUnits="userSpaceOnUse" x1="139.1736" y1="-35.8755" x2="12.2721" y2="66.305" gradientTransform="matrix(1 0 0 -1 122.7777 194.1629)">
			<stop  offset="7.912270e-03" style="stop-color:#0050BF"/>
			<stop  offset="0.2003" style="stop-color:#0A67C7"/>
			<stop  offset="0.6002" style="stop-color:#24A0DB"/>
			<stop  offset="1" style="stop-color:#41E0F2"/>
		</linearGradient>
		<path class="st4" d="M175.3,219.4c-0.2,0-0.5-0.2-0.5-0.2c-11.1-6.2-15.8-12.6-15.8-21.2V86.8c0,23,13.1,34.3,25.7,47.8
			c25.3,27,74.9,81.6,86.2,94.5l17.7,18.6c1.7,2,0,4.9-2.7,4.2L175.3,219.4z"/>
		
			<linearGradient id="SVGID_6_" gradientUnits="userSpaceOnUse" x1="39.8618" y1="64.3547" x2="63.8579" y2="105.5874" gradientTransform="matrix(1 0 0 -1 122.7777 194.1629)">
			<stop  offset="7.912492e-03" style="stop-color:#000000"/>
			<stop  offset="1" style="stop-color:#1176CC;stop-opacity:0"/>
		</linearGradient>
		<path class="st5" d="M159.1,73.4l47.7,13.5l5.3,20.7l-24.9,29.3h-0.2l0,0c-0.8-0.8-1.4-1.5-2.2-2.3c-10.3-11-20.9-20.5-24.4-36.1
			c-0.9-3.6-1.2-7.4-1.2-11.7"/>
	</g>
</g>
</svg>
