<?xml version="1.0" encoding="utf-8"?>
<!-- Generator: Adobe Illustrator 24.1.2, SVG Export Plug-In . SVG Version: 6.00 Build 0)  -->
<svg version="1.1" id="Layer_1" xmlns="http://www.w3.org/2000/svg" xmlns:xlink="http://www.w3.org/1999/xlink" x="0px" y="0px"
	 viewBox="0 0 433 47" style="enable-background:new 0 0 433 47;" xml:space="preserve">
<style type="text/css">
	.st0{fill:#062150;}
	.st1{fill:url(#SVGID_1_);}
	.st2{fill:url(#SVGID_2_);}
	.st3{fill:url(#SVGID_3_);}
	.st4{fill:url(#SVGID_4_);}
	.st5{fill:url(#SVGID_5_);}
	.st6{fill:url(#SVGID_6_);}
</style>
<path class="st0" d="M9,7.8v11.4h15.2v7.1H9v12h17.2v7.4H0V0.5h26.2v7.4H9z"/>
<path class="st0" d="M58.8,0.6v27.9c0,3.1,0.8,5.4,2.5,7c1.5,1.7,3.9,2.5,6.7,2.5c3,0,5.2-0.8,6.8-2.5c1.5-1.7,2.5-4,2.5-7V0.6h9
	v27.8c0,3.9-0.8,7.1-2.5,9.7c-1.7,2.6-3.9,4.6-6.6,5.9c-2.7,1.3-5.8,1.9-9.3,1.9c-3.4,0-6.5-0.6-9.2-1.9c-2.7-1.3-4.9-3.4-6.5-5.9
	c-1.5-2.6-2.5-5.9-2.5-9.7V0.6H58.8z"/>
<path class="st0" d="M119.3,7.8v11.4h15.2v7.1h-15.2v12h17.2v7.4h-26.2V0.5h26.2v7.4H119.3z"/>
<path class="st0" d="M183.4,45.7l-9.9-17.6h-4.3v17.6h-9V0.6h16.9c3.5,0,6.5,0.6,8.9,1.8c2.5,1.3,4.3,2.8,5.6,5
	c1.2,2.1,1.8,4.4,1.8,7c0,3-0.9,5.7-2.6,8c-1.7,2.5-4.3,4-7.6,4.9l10.7,18.3H183.4z M169.2,21.3h7.5c2.5,0,4.3-0.6,5.6-1.8
	c1.2-1.2,1.8-2.8,1.8-4.9s-0.6-3.6-1.8-4.8c-1.2-1.2-3-1.7-5.6-1.7h-7.5V21.3z"/>
<path class="st0" d="M242.5,45.7l-16.4-20.1v20h-9V0.5h9v20.3l16.4-20.3h10.8l-18.6,22.3l19.1,22.7h-11.4V45.7z"/>
<path class="st0" d="M341.8,45.7l3-8.7l2.5-7.2l6.6-18.9l6.5,18.9l2.5,7.2l2.8,8.7h9.6L359,0.5h-10.6l-16.1,45.2H341.8z"/>
<path class="st0" d="M432.8,0.6l-15.2,29.4v15.8h-9V30.1L393.1,0.6h10.2l9.7,20.7l9.7-20.7H432.8z"/>
<g>
	<g>
		
			<linearGradient id="SVGID_1_" gradientUnits="userSpaceOnUse" x1="-96.4376" y1="915.3587" x2="-118.7796" y2="890.3469" gradientTransform="matrix(1 0 0 1 391.8659 -892.4859)">
			<stop  offset="7.912270e-03" style="stop-color:#0050BF"/>
			<stop  offset="0.2003" style="stop-color:#0A67C7"/>
			<stop  offset="0.6002" style="stop-color:#24A0DB"/>
			<stop  offset="1" style="stop-color:#41E0F2"/>
		</linearGradient>
		<path class="st1" d="M293.7,11.8v19.5l-5.2-6.1L267.9,0.9c-0.3-0.5,0.2-1.1,0.7-0.8l14.6,5.3c0,0,0,0,0.1,0l6.6,2.4
			c0.4,0.1,0.7,0.3,1,0.4c0.3,0.1,0.6,0.3,0.9,0.5C293.1,9.6,293.7,10.6,293.7,11.8z"/>
		
			<linearGradient id="SVGID_2_" gradientUnits="userSpaceOnUse" x1="-687.1461" y1="-58.6009" x2="-711.4905" y2="-38.999" gradientTransform="matrix(-1 0 0 -1 -413.2155 -15.8371)">
			<stop  offset="7.912270e-03" style="stop-color:#0050BF"/>
			<stop  offset="0.2003" style="stop-color:#0A67C7"/>
			<stop  offset="0.6002" style="stop-color:#24A0DB"/>
			<stop  offset="1" style="stop-color:#41E0F2"/>
		</linearGradient>
		<path class="st2" d="M269.3,47c-0.5,0.1-0.8-0.4-0.5-0.8l3.4-3.6c2.2-2.5,11.7-12.9,16.5-18.1c2.4-2.6,4.9-4.8,4.9-9.2v21.3
			c0,1.7-0.9,2.9-3,4.1c0,0,0,0-0.1,0L269.3,47z"/>
		
			<linearGradient id="SVGID_3_" gradientUnits="userSpaceOnUse" x1="-706.2109" y1="-39.4152" x2="-701.6016" y2="-31.4951" gradientTransform="matrix(-1 0 0 -1 -413.2155 -15.8371)">
			<stop  offset="7.912492e-03" style="stop-color:#000000"/>
			<stop  offset="1" style="stop-color:#1176CC;stop-opacity:0"/>
		</linearGradient>
		<path class="st3" d="M293.7,12.7l-9.1,2.6l-1,4l4.8,5.6l0,0c0.1-0.1,0.3-0.3,0.4-0.5c2-2.1,4-3.9,4.7-6.9c0.2-0.7,0.2-1.4,0.2-2.3
			"/>
		
			<linearGradient id="SVGID_4_" gradientUnits="userSpaceOnUse" x1="-976.9364" y1="915.3552" x2="-999.2784" y2="890.3433" gradientTransform="matrix(-1 0 0 1 -682.3037 -892.4859)">
			<stop  offset="7.912270e-03" style="stop-color:#0050BF"/>
			<stop  offset="0.2003" style="stop-color:#0A67C7"/>
			<stop  offset="0.6002" style="stop-color:#24A0DB"/>
			<stop  offset="1" style="stop-color:#41E0F2"/>
		</linearGradient>
		<path class="st4" d="M296.4,11.8v19.5l5.2-6.1l20.5-24.2c0.3-0.5-0.2-1.1-0.7-0.8l-14.6,5.3c0,0,0,0-0.1,0l-6.6,2.4
			c-0.4,0.1-0.7,0.3-1,0.4c-0.3,0.1-0.6,0.3-0.9,0.5C297,9.6,296.4,10.6,296.4,11.8z"/>
		
			<linearGradient id="SVGID_5_" gradientUnits="userSpaceOnUse" x1="193.3404" y1="-58.6241" x2="168.996" y2="-39.0221" gradientTransform="matrix(1 0 0 -1 122.7777 -15.8371)">
			<stop  offset="7.912270e-03" style="stop-color:#0050BF"/>
			<stop  offset="0.2003" style="stop-color:#0A67C7"/>
			<stop  offset="0.6002" style="stop-color:#24A0DB"/>
			<stop  offset="1" style="stop-color:#41E0F2"/>
		</linearGradient>
		<path class="st5" d="M299.5,40.7C299.5,40.7,299.4,40.7,299.5,40.7c-2.2-1.2-3.1-2.5-3.1-4.1V15.3c0,4.4,2.5,6.6,4.9,9.2
			c4.9,5.2,14.4,15.7,16.5,18.1l3.4,3.6c0.3,0.4,0,0.9-0.5,0.8L299.5,40.7z"/>
		
			<linearGradient id="SVGID_6_" gradientUnits="userSpaceOnUse" x1="174.2887" y1="-39.3962" x2="178.8921" y2="-31.4863" gradientTransform="matrix(1 0 0 -1 122.7777 -15.8371)">
			<stop  offset="7.912492e-03" style="stop-color:#000000"/>
			<stop  offset="1" style="stop-color:#1176CC;stop-opacity:0"/>
		</linearGradient>
		<path class="st6" d="M296.4,12.7l9.1,2.6l1,4l-4.8,5.6h0l0,0c-0.1-0.1-0.3-0.3-0.4-0.4c-2-2.1-4-3.9-4.7-6.9
			c-0.2-0.7-0.2-1.4-0.2-2.3"/>
	</g>
</g>
</svg>
