<?xml version="1.0" encoding="utf-8"?>
<!-- Generator: Adobe Illustrator 24.1.2, SVG Export Plug-In . SVG Version: 6.00 Build 0)  -->
<svg version="1.1" id="Layer_1" xmlns="http://www.w3.org/2000/svg" xmlns:xlink="http://www.w3.org/1999/xlink" x="0px" y="0px"
	 viewBox="0 0 118 99" style="enable-background:new 0 0 118 99;" xml:space="preserve">
<style type="text/css">
	.st0{fill:url(#SVGID_1_);}
	.st1{fill:url(#SVGID_2_);}
	.st2{fill:url(#SVGID_3_);}
	.st3{fill:url(#SVGID_4_);}
	.st4{fill:url(#SVGID_5_);}
	.st5{fill:url(#SVGID_6_);}
</style>
<g>
	<g>
		
			<linearGradient id="SVGID_1_" gradientUnits="userSpaceOnUse" x1="-332.0656" y1="940.7401" x2="-376.4442" y2="891.0583" gradientTransform="matrix(1 0 0 1 391.8659 -892.4859)">
			<stop  offset="7.912270e-03" style="stop-color:#0050BF"/>
			<stop  offset="0.2003" style="stop-color:#0A67C7"/>
			<stop  offset="0.6002" style="stop-color:#24A0DB"/>
			<stop  offset="1" style="stop-color:#41E0F2"/>
		</linearGradient>
		<path class="st0" d="M56.3,26.2V65L46,52.8L5.2,4.6c-0.7-1,0.4-2.2,1.4-1.7l29.1,10.5c0,0,0,0,0.1,0l13.1,4.8
			c0.7,0.3,1.4,0.5,2,0.9c0.6,0.3,1.2,0.7,1.7,1C55.2,21.9,56.3,23.8,56.3,26.2z"/>
		
			<linearGradient id="SVGID_2_" gradientUnits="userSpaceOnUse" x1="-744.3143" y1="-51.6014" x2="-792.6702" y2="-12.6654" gradientTransform="matrix(-1 0 0 -1 -727.2155 36.1629)">
			<stop  offset="7.912270e-03" style="stop-color:#0050BF"/>
			<stop  offset="0.2003" style="stop-color:#0A67C7"/>
			<stop  offset="0.6002" style="stop-color:#24A0DB"/>
			<stop  offset="1" style="stop-color:#41E0F2"/>
		</linearGradient>
		<path class="st1" d="M7.9,96.1c-1,0.3-1.7-0.8-1-1.6l6.7-7.1c4.3-4.9,23.2-25.7,32.9-36c4.8-5.1,9.8-9.5,9.8-18.2v42.3
			c0,3.3-1.8,5.7-6,8.1c0,0-0.1,0.1-0.2,0.1L7.9,96.1z"/>
		
			<linearGradient id="SVGID_3_" gradientUnits="userSpaceOnUse" x1="-782.1833" y1="-13.4923" x2="-773.0278" y2="2.2397" gradientTransform="matrix(-1 0 0 -1 -727.2155 36.1629)">
			<stop  offset="7.912492e-03" style="stop-color:#000000"/>
			<stop  offset="1" style="stop-color:#1176CC;stop-opacity:0"/>
		</linearGradient>
		<path class="st2" d="M56.3,28.1l-18.2,5.1l-2,7.9l9.5,11.2l0.1,0.1c0.3-0.3,0.6-0.6,0.8-0.9c3.9-4.2,7.9-7.8,9.3-13.7
			c0.3-1.4,0.5-2.8,0.5-4.5"/>
		
			<linearGradient id="SVGID_4_" gradientUnits="userSpaceOnUse" x1="-1054.5237" y1="940.7331" x2="-1098.9023" y2="891.0513" gradientTransform="matrix(-1 0 0 1 -996.3037 -892.4859)">
			<stop  offset="7.912270e-03" style="stop-color:#0050BF"/>
			<stop  offset="0.2003" style="stop-color:#0A67C7"/>
			<stop  offset="0.6002" style="stop-color:#24A0DB"/>
			<stop  offset="1" style="stop-color:#41E0F2"/>
		</linearGradient>
		<path class="st3" d="M61.7,26.2V65L72,52.8l40.8-48.1c0.7-1-0.4-2.2-1.4-1.7L82.3,13.5c0,0,0,0-0.1,0l-13.1,4.8
			c-0.7,0.3-1.4,0.5-2,0.9c-0.6,0.3-1.2,0.7-1.7,1C62.8,21.9,61.7,23.8,61.7,26.2z"/>
		
			<linearGradient id="SVGID_5_" gradientUnits="userSpaceOnUse" x1="-21.8806" y1="-51.6474" x2="-70.2366" y2="-12.7114" gradientTransform="matrix(1 0 0 -1 122.7777 36.1629)">
			<stop  offset="7.912270e-03" style="stop-color:#0050BF"/>
			<stop  offset="0.2003" style="stop-color:#0A67C7"/>
			<stop  offset="0.6002" style="stop-color:#24A0DB"/>
			<stop  offset="1" style="stop-color:#41E0F2"/>
		</linearGradient>
		<path class="st4" d="M67.9,83.8c-0.1,0-0.2-0.1-0.2-0.1c-4.2-2.3-6-4.8-6-8.1V33.2c0,8.8,5,13.1,9.8,18.2
			c9.6,10.3,28.5,31.1,32.9,36l6.7,7.1c0.7,0.8,0,1.9-1,1.6L67.9,83.8z"/>
		
			<linearGradient id="SVGID_6_" gradientUnits="userSpaceOnUse" x1="-59.7235" y1="-13.4545" x2="-50.5798" y2="2.2572" gradientTransform="matrix(1 0 0 -1 122.7777 36.1629)">
			<stop  offset="7.912492e-03" style="stop-color:#000000"/>
			<stop  offset="1" style="stop-color:#1176CC;stop-opacity:0"/>
		</linearGradient>
		<path class="st5" d="M61.7,28.1l18.2,5.1l2,7.9l-9.5,11.2h-0.1l0,0c-0.3-0.3-0.5-0.6-0.8-0.9c-3.9-4.2-7.9-7.8-9.3-13.7
			c-0.3-1.4-0.5-2.8-0.5-4.5"/>
	</g>
</g>
</svg>
